<svg id="Layer_1" enable-background="new 0 0 512.006 512.006" height="512" viewBox="0 0 512.006 512.006" width="512" xmlns="http://www.w3.org/2000/svg"><g><path d="m392.713 428.056c-9.283 7.223-18.62 14.146-27.75 20.576-2.21 1.556-3.411 4.182-3.145 6.871.025.256 2.501 25.833.01 48.169-.459 4.116 2.506 7.825 6.623 8.284 4.043.475 7.843-2.491 8.285-6.622 2.059-18.462 1.013-38.306.376-46.929 8.198-5.851 16.528-12.065 24.812-18.511 3.27-2.544 3.857-7.256 1.313-10.525-2.543-3.269-7.256-3.856-10.524-1.313z"/><path d="m511.988 148.265c.135-2.07-.593-4.103-2.011-5.617s-3.399-2.372-5.474-2.372c-29.002 0-45.168 9.801-53.289 32.597-11.859 1.058-21.616 5.586-29.058 13.5-21.872 23.258-18.905 71.506-16.287 114.075.078 1.269.156 2.533.233 3.792-32.1-3.602-63.364 30.153-107.226 67.301-7.96 6.992-16.192 14.221-25.241 22.089-1.438 1.251-2.348 3.004-2.54 4.902-.202 1.998-4.917 49.608-.579 106.542.3 4.139 3.973 7.237 8.048 6.908 4.131-.315 7.224-3.918 6.909-8.048-3.635-47.708-.658-89.754.284-100.969 8.186-7.128 15.716-13.741 23.018-20.153 73.077-64.174 89.626-77.224 116.244-51.315-10.4 9.244-33.694 29.678-60.12 51.107-3.218 2.609-3.711 7.331-1.102 10.549 2.608 3.217 7.333 3.711 10.549 1.102 35.957-29.156 66.205-56.524 66.507-56.798 1.478-1.339 2.361-3.211 2.455-5.203.095-1.992-.608-3.94-1.953-5.412-2.48-2.716-4.913-5.182-7.312-7.404l21.384-19.528c1.556-1.421 2.442-3.431 2.442-5.538 0-55.296 0-91.826 6.464-113.374 5.023-16.746 13.79-23.958 32.221-25.43-1.249 24.235-4.282 98.242.276 176.981-7.746 8.44-36.618 39.178-76.617 73.134-3.158 2.681-3.545 7.414-.864 10.571 2.691 3.169 7.429 3.534 10.571.864 47.653-40.453 79.867-76.518 80.186-76.878 1.325-1.49 2.003-3.446 1.883-5.436-5.79-95.898-.059-185.644-.001-186.539zm-90.026 161.891c-.166-.1-.331-.198-.497-.295-.197-3.4-.409-6.85-.623-10.334-1.885-42.413-8.809-101.79 26.316-110.862-4.189 23.154-4.286 56.26-4.288 102.398z"/><path d="m238.372 393.629c-17.928-15.565-36.16-31.82-52.836-46.153-3.146-2.698-7.88-2.334-10.576.809-2.697 3.143-2.335 7.878.809 10.575 8.277 7.1 17.177 14.916 27.481 23.965 7.296 6.408 14.821 13.016 23 20.139.943 11.215 3.92 53.262.285 100.969-.314 4.13 2.778 7.733 6.909 8.048 4.075.328 7.747-2.769 8.048-6.908 4.338-56.934-.378-104.543-.58-106.542-.192-1.898-1.101-3.651-2.54-4.902z"/><path d="m155.996 323.517c-20.254-14.926-35.885-21.379-50.355-19.223.086-1.394.173-2.794.26-4.2 2.538-51.805 9.943-120.711-45.107-127.221-8.121-22.797-24.287-32.598-53.29-32.598-4.349-.021-7.833 3.755-7.477 8.086 5.853 89.384 5.851 89.417-.009 186.441-.12 1.99.557 3.947 1.883 5.436.574.646 57.504 64.286 132.997 118.166-.637 8.623-1.683 28.467.376 46.93.428 3.834 3.675 6.669 7.445 6.669.277 0 .558-.015.84-.047 4.117-.459 7.082-4.168 6.623-8.285-2.491-22.336-.016-47.913.01-48.169.266-2.689-.936-5.315-3.146-6.871-67.696-47.674-120.897-104.141-131.865-116.081 5.545-91.831 5.663-95.653.35-176.977 18.377 1.486 27.127 8.702 32.144 25.424 6.465 21.549 6.465 58.079 6.465 113.374 0 2.107.887 4.117 2.442 5.538l21.378 19.521c-2.4 2.229-4.83 4.698-7.306 7.409-1.345 1.472-2.048 3.42-1.953 5.411.094 1.992.978 3.865 2.455 5.203.302.273 30.55 27.641 66.507 56.798 3.196 2.598 7.928 2.13 10.549-1.102 2.609-3.217 2.116-7.94-1.102-10.549-26.413-21.418-49.714-41.858-60.118-51.105 18.736-18.224 31.868-16.714 60.106 4.095 3.333 2.457 8.03 1.747 10.486-1.588 2.458-3.332 1.747-8.027-1.588-10.485zm-86.857-32.454c-.002-46.134-.099-79.238-4.287-102.392 34.913 9.068 27.987 68.197 26.078 110.493-.227 3.653-.452 7.269-.659 10.829-.081.048-.162.097-.243.146z"/><path d="m358.386 222.921c-2.806-3.048-7.551-3.244-10.597-.438-24.419 22.477-55.286 41.803-91.785 57.47-125.601-53.901-160-139.502-151.146-196.763.633-4.093-2.173-7.925-6.266-8.558-4.105-.634-7.926 2.173-8.559 6.266-9.747 63.041 27.109 156.944 163.063 214.116 1.859.782 3.955.782 5.814 0 39.372-16.557 72.693-37.247 99.036-61.497 3.049-2.805 3.246-7.549.44-10.596z"/><path d="m104.345 56.449c3.668 1.915 8.201.492 10.118-3.181 27.694-49.588 81.573-51.755 136.569-3.436 2.838 2.513 7.105 2.513 9.943 0 119.854-102.898 197.46 45.037 109.378 148.726-2.609 3.217-2.116 7.94 1.102 10.549 1.39 1.127 3.06 1.675 4.719 1.675 2.184 0 4.348-.949 5.83-2.777 33.221-40.966 40.867-79.296 41.433-104.238 2.079-56.513-35.768-108.022-93.101-103.489-24.144 1.837-49.732 13.581-74.327 34.051-40.965-34.197-74.813-36.907-96.313-32.939-25.038 4.624-45.825 20.585-58.531 44.941-1.917 3.673-.493 8.203 3.18 10.118z"/><path d="m256.004 233.853c4.143 0 7.5-3.358 7.5-7.5v-91.915h29.047c9.931-.344 9.923-14.659 0-15h-29.047v-30.55c-.344-9.93-14.66-9.923-15 0v30.551h-29.046c-9.931.344-9.923 14.659 0 15h29.046v91.915c0 4.141 3.358 7.499 7.5 7.499z"/></g></svg>