<svg id="Capa_1" enable-background="new 0 0 511.723 511.723" height="512" viewBox="0 0 511.723 511.723" width="512" xmlns="http://www.w3.org/2000/svg"><g><path d="m354.265 267.674-51.619-51.619 40.659-40.658c23.44-23.439 15.86-63.086-14.421-76.318 20.425-23.477 19.487-59.208-2.845-81.54-23.385-23.384-61.23-23.386-84.616 0l-5.244 5.244-5.244-5.244c-23.385-23.384-61.23-23.386-84.616 0-22.621 22.621-23.237 58.527-2.529 81.909-30.414 13.32-37.686 53.001-14.384 76.302l14.251 14.252c-30.262 13.365-37.548 52.963-14.251 76.258l14.252 14.252c-30.263 13.363-37.543 52.966-14.252 76.257l14.977 14.978c-30.466 13.391-37.442 53.069-14.27 76.239l21.921 21.921c55.756 55.756 146.475 55.757 202.233 0 55.753-55.757 55.753-146.478-.002-202.233zm-32.174-113.491-40.659 40.658-24.04-24.041 40.667-40.667c3.21-3.206 7.476-4.972 12.012-4.972 15.225.001 22.617 18.426 12.02 29.022zm-154.559-115.431c11.658-11.659 30.529-11.66 42.189 0l15.851 15.851c5.857 5.857 15.355 5.857 21.213 0l15.851-15.851c11.658-11.659 30.529-11.66 42.189 0 11.631 11.632 11.631 30.558 0 42.189-19.998 19.998-20.847 20.846-68.647 68.646-27.631-27.631-2.71-2.709-68.647-68.646-11.658-11.658-11.66-30.529.001-42.189zm165.52 409.941c-44.059 44.06-115.748 44.058-159.807 0l-21.92-21.921c-6.642-6.642-6.642-17.399 0-24.042 6.577-6.577 17.319-6.659 23.983-.059 11.529 11.53 10.565 10.666 10.666 10.666 5.857 5.858 15.354 5.858 21.213 0 5.858-5.857 5.858-15.354 0-21.213-13.558-13.558 4.005 4.005-56.569-56.569-3.21-3.21-4.978-7.479-4.978-12.021 0-15.167 18.399-22.641 29.02-12.021l45.255 45.254c5.857 5.857 15.355 5.857 21.213 0 5.857-5.857 5.857-15.355 0-21.213l-90.509-90.509c-10.611-10.611-3.173-29.021 12.021-29.021 4.456 0 8.732 1.691 12.073 5.032l79.144 79.143c5.857 5.857 15.355 5.857 21.213 0s5.858-15.355 0-21.213l-124.45-124.45c-6.644-6.644-6.645-17.397 0-24.042 6.641-6.641 17.389-6.646 24.037-.005 58.67 58.671 99.719 99.718 158.397 158.396 44.056 44.06 44.056 115.75-.002 159.808z"/></g></svg>