<?xml version="1.0" encoding="iso-8859-1"?>
<!-- Generator: Adobe Illustrator 19.0.0, SVG Export Plug-In . SVG Version: 6.00 Build 0)  -->
<svg version="1.1" id="Capa_1" xmlns="http://www.w3.org/2000/svg" xmlns:xlink="http://www.w3.org/1999/xlink" x="0px" y="0px"
	 viewBox="0 0 512 512" style="enable-background:new 0 0 512 512;" xml:space="preserve">
<g>
	<g>
		<path d="M511.97,276.562c-0.591-28.131-9.735-54.873-26.442-77.335c-8.477-11.405-18.723-21.376-30.454-29.637
			c-11.735-8.263-24.577-14.549-38.17-18.685c-26.788-8.156-55.048-7.749-81.721,1.177c-27.255,9.117-50.433,26.393-67.027,49.96
			c-1.961,2.785-3.826,5.656-5.545,8.533c-12.946,21.662-19.478,46.457-18.89,71.701c0.688,30.026,11.54,59.258,30.553,82.307
			c7.602,9.224,16.462,17.425,26.333,24.377c9.872,6.951,20.579,12.526,31.818,16.572c14.557,5.247,29.935,7.876,45.338,7.876
			c14.345,0,28.713-2.28,42.458-6.848c23.957-7.954,45.098-22.458,61.138-41.949c2.135-2.596,4.21-5.322,6.167-8.102l-0.001,0.001
			C504.119,332.939,512.574,305.296,511.97,276.562z M446.211,182.173c6.107,4.301,11.743,9.136,16.888,14.428
			c-8.982-0.241-17.87-1.3-24.902-3.045c-4.016-6.035-8.009-14.047-11.264-22.421C433.651,174.195,440.103,177.872,446.211,182.173z
			 M344.499,165.291c10.966-3.211,22.193-4.822,33.417-4.822c10.235,0,20.468,1.341,30.494,4.018
			c3.741,12.695,9.543,25.837,15.729,35.664l-16.751,23.79c-17.942-3.992-43.709-4.458-61.238,0.744l-15.246-18.089
			C336.953,194.989,342.057,179.499,344.499,165.291z M424.617,293.454c-9.083,11.567-30.465,28.45-46.148,34.653
			c-18.49-5.985-34.965-17.589-46.829-32.98c0.427-16.88,7.852-40.89,17.053-55.106c14.729-5.082,41.205-4.57,57.22-0.619
			C415.027,253.138,424.427,277.871,424.617,293.454z M327.426,171.728c-2.651,10.691-6.671,21.505-11.085,29.469
			c-9.082,3.071-21.201,5.141-32.677,5.728C295.327,191.712,310.236,179.747,327.426,171.728z M277.443,342.749
			c-8.81-13.975-14.647-29.753-17.08-46.157c8.107,5.592,15.783,12.082,21.103,17.982
			C281.406,322.755,279.906,332.973,277.443,342.749z M259.088,277.569c0.257-19.312,5.219-38.204,14.474-55.137
			c1.188,0.034,2.383,0.062,3.598,0.062c14.053,0,29.762-2.242,41.942-6.02l15.029,17.832
			c-9.609,16.109-16.799,39.582-17.779,58.124l-25.086,10.082C282.902,293.722,270.866,284.385,259.088,277.569z M309.468,376.375
			c-7.555-5.319-14.433-11.465-20.505-18.302c4.508-13.238,7.445-28.697,7.845-41.202l24.618-9.893
			c12.919,15.804,30.11,27.909,49.344,34.745l-1.018,26.51c-11.641,4.591-25.205,12.567-36.149,21.274
			C325.125,386.098,317.022,381.695,309.468,376.375z M351.914,395.188c8.373-5.612,17.489-10.469,25.172-13.285
			c7.349,3.021,16.049,8.061,24.047,13.811C384.867,398.952,368.044,398.774,351.914,395.188z M419.473,390.503
			c-10.388-8.793-23.237-16.978-34.332-21.891l1.038-27.055c17.147-7.413,37.737-23.588,48.651-36.319l21.935,8.169
			c0.596,13.84,4.306,30.977,9.737,44.885C453.675,372.713,437.562,383.753,419.473,390.503z M462.081,298.964l-22.168-8.256
			c-1.011-18.258-10.134-42.36-19.94-57.906l16.75-23.789c8.898,1.971,19.641,3.037,30.246,3.037c2.902,0,5.789-0.088,8.628-0.25
			c12.37,17.894,19.508,38.624,20.799,60.44C483.842,279.324,470.974,289.352,462.081,298.964z M477.696,343.555
			c-3.316-11.009-5.454-23.118-5.624-32.7c6.014-6.844,14.843-14.275,24.017-20.373
			C494.334,309.372,488.092,327.444,477.696,343.555z"/>
	</g>
</g>
<g>
	<g>
		<path d="M250.741,152.356c0.971,0.406,1.978,0.598,2.968,0.598c3.009,0,5.868-1.776,7.102-4.727l55.743-133.214
			c1.641-3.921-0.208-8.429-4.128-10.069c-3.919-1.64-8.429,0.207-10.07,4.128l-24.013,57.384L155.027,36.52l5.05-22.812
			c0.919-4.149-1.7-8.258-5.85-9.177c-4.146-0.919-8.258,1.701-9.176,5.851L104.418,193.91c-1.685-0.122-3.385,0.3-4.822,1.26
			l-58.788,39.192c-0.451,0.291-0.881,0.631-1.276,1.027l-11.778,11.778c-0.01,0.01-0.018,0.022-0.029,0.032l-25.472,25.47
			C0.811,274.112,0,276.069,0,278.11c0,2.041,0.811,3.999,2.253,5.441l9.927,9.927l-9.292,9.292
			c-3.006,3.005-3.006,7.877-0.001,10.882c1.503,1.503,3.472,2.254,5.442,2.254c1.969,0,3.939-0.751,5.441-2.254l9.293-9.292
			l30.065,30.065l-9.292,9.292c-3.005,3.005-3.005,7.878,0,10.882c1.503,1.502,3.473,2.254,5.442,2.254s3.939-0.751,5.442-2.254
			l9.292-9.292l30.065,30.065l-9.292,9.291c-3.006,3.005-3.006,7.877-0.001,10.882c1.503,1.503,3.472,2.254,5.442,2.254
			c1.969,0,3.939-0.751,5.441-2.254l9.292-9.292l30.064,30.064l-9.292,9.292c-3.005,3.005-3.005,7.878,0.001,10.883
			c1.502,1.502,3.472,2.253,5.441,2.253s3.939-0.751,5.442-2.254l9.291-9.292l20.26,20.26c1.397,1.397,4.969,4.906,10.097,9.509
			l-9.586,9.586c-3.005,3.005-3.005,7.878,0,10.882c1.503,1.502,3.473,2.254,5.442,2.254s3.939-0.751,5.442-2.254l10.438-10.438
			c9.28,7.546,20.671,15.896,32.69,22.592l-4.02,6.154c-2.325,3.558-1.325,8.326,2.233,10.651c1.3,0.849,2.758,1.254,4.203,1.254
			c2.511,0,4.973-1.228,6.449-3.488l5.076-7.77c8.913,3.682,17.854,5.995,26.256,5.994c5.31-0.001,10.41-0.925,15.143-3.014
			c0.871-0.385,1.663-0.927,2.335-1.6l16.688-16.686c0.175-0.176,0.344-0.361,0.502-0.554c0.992-1.206,5.877-7.843,4.655-20.116
			c-1.939-19.429-17.873-41.647-47.377-66.059l-3.742-11.847c-1.279-4.052-5.603-6.3-9.655-5.02
			c-4.053,1.28-6.301,5.603-5.021,9.656l4.429,14.025c0.451,1.431,1.311,2.698,2.475,3.647
			c34.209,27.893,42.329,46.444,43.485,56.634c-22.866-1.022-57.665-25.783-82.256-50.373l-96.582-96.582
			c-3.006-3.005-7.878-3.005-10.883,0s-3.005,7.878,0,10.882l96.582,96.582c5.51,5.51,49.321,48.291,86.522,54.224l-9.592,9.592
			c-9.608,3.384-24.831-0.547-43.113-11.176c-15.577-9.056-33.682-23.27-48.435-38.022L18.578,278.11l14.618-14.617l45.268,45.269
			c1.503,1.503,3.472,2.254,5.442,2.254c1.969,0,3.939-0.751,5.442-2.254c3.005-3.005,3.005-7.878,0-10.882L44.08,252.611
			l5.796-5.796l49.932-33.29c4.998,13.044,15.988,36.589,35.911,56.512c13.367,13.366,30.375,17.621,49.185,12.309
			c5.64-1.593,10.617-3.838,14.531-5.938l7.862,24.888l-9.533,1.644c-4.188,0.722-6.998,4.702-6.275,8.892
			c0.645,3.746,3.898,6.389,7.574,6.389c0.434,0,0.875-0.037,1.316-0.113l11.595-2l1.203,3.808l-9.128,1.69
			c-4.179,0.774-6.94,4.789-6.167,8.968c0.686,3.705,3.921,6.296,7.558,6.296c0.465,0,0.937-0.043,1.411-0.13l10.995-2.037
			l1.192,3.775l-9.593,1.776c-4.179,0.774-6.94,4.789-6.167,8.968c0.686,3.705,3.921,6.296,7.558,6.296
			c0.465,0,0.937-0.043,1.411-0.13l11.461-2.123l4.157,13.158c1.279,4.053,5.606,6.301,9.655,5.021
			c4.053-1.281,6.301-5.603,5.021-9.656l-3.587-11.357c4.062-0.867,6.722-4.81,5.961-8.919c-0.775-4.179-4.789-6.942-8.969-6.166
			l-1.66,0.308l-1.192-3.775l0.257-0.047c4.179-0.774,6.94-4.789,6.167-8.968c-0.775-4.179-4.789-6.939-8.969-6.166l-2.125,0.394
			l-1.144-3.623l1.562-0.269c4.188-0.722,6.998-4.702,6.275-8.892c-0.721-4.188-4.705-6.999-8.891-6.276l-3.625,0.625
			l-10.641-33.689l39.024-93.256c1.641-3.921-0.208-8.429-4.128-10.069c-3.924-1.643-8.43,0.207-10.07,4.128l-39.28,93.871
			c-6.393,4.409-31.185,19.231-50.901-0.486c-15.739-15.738-25.397-34.398-30.551-46.598l25.97-117.301
			c2.549,0.919,5.593,1.904,9.253,2.992c20.742,6.161,55.796,13.786,104.274,22.682l-8.938,21.36
			C244.973,146.208,246.821,150.716,250.741,152.356z M145.381,80.095l6.32-28.545l120.627,29.285l-10.695,25.558
			C180.334,91.56,153.764,83.396,145.381,80.095z"/>
	</g>
</g>
<g>
</g>
<g>
</g>
<g>
</g>
<g>
</g>
<g>
</g>
<g>
</g>
<g>
</g>
<g>
</g>
<g>
</g>
<g>
</g>
<g>
</g>
<g>
</g>
<g>
</g>
<g>
</g>
<g>
</g>
</svg>
