<svg id="Layer_3" enable-background="new 0 0 64 64" height="512" viewBox="0 0 64 64" width="512" xmlns="http://www.w3.org/2000/svg"><path d="m21.468 20.377-1.449 2.44 4.164 4.164 2.44-1.449c.555.283 1.134.522 1.732.716l.702 2.752h5.887l.702-2.752c.599-.193 1.178-.433 1.732-.716l2.44 1.449 4.164-4.164-1.449-2.44c.283-.555.522-1.134.716-1.732l2.751-.702v-5.887l-2.752-.702c-.193-.599-.433-1.178-.716-1.732l1.449-2.44-4.164-4.164-2.44 1.449c-.555-.283-1.134-.522-1.732-.716l-.702-2.751h-5.887l-.702 2.752c-.599.193-1.178.433-1.732.716l-2.44-1.449-4.164 4.164 1.449 2.44c-.283.555-.522 1.134-.716 1.732l-2.751.702v5.887l2.752.702c.193.598.433 1.177.716 1.731zm-1.468-6.767 2.363-.602.152-.564c.223-.828.549-1.616.969-2.344l.292-.507-1.244-2.095 1.965-1.965 2.095 1.244.508-.293c.728-.42 1.516-.746 2.344-.969l.564-.152.602-2.363h2.779l.602 2.363.564.152c.828.223 1.616.549 2.344.969l.507.292 2.095-1.244 1.965 1.965-1.244 2.095.292.507c.42.728.746 1.516.969 2.344l.152.564 2.365.603v2.779l-2.363.602-.152.564c-.223.828-.549 1.616-.969 2.344l-.292.507 1.244 2.095-1.965 1.965-2.095-1.244-.508.294c-.728.42-1.516.746-2.344.969l-.564.152-.602 2.363h-2.78l-.602-2.363-.564-.152c-.828-.223-1.616-.549-2.344-.969l-.507-.292-2.095 1.244-1.965-1.965 1.244-2.095-.293-.508c-.42-.728-.746-1.516-.969-2.344l-.152-.564-2.363-.602z"/><path d="m1 61h2v2h-2z"/><path d="m61 61h2v2h-2z"/><path d="m32 21c3.309 0 6-2.691 6-6s-2.691-6-6-6-6 2.691-6 6 2.691 6 6 6zm0-10c2.206 0 4 1.794 4 4s-1.794 4-4 4-4-1.794-4-4 1.794-4 4-4z"/><path d="m57 33h-12v-2h-26v2h-12v28h-2v2h54v-2h-2zm-2 28h-10v-6h10zm0-26v18h-10v-18zm-12-2v28h-3v-11c0-1.654-1.346-3-3-3h-10c-1.654 0-3 1.346-3 3v11h-3v-28zm-10 16h4c.551 0 1 .448 1 1v11h-5zm-2 12h-5v-11c0-.552.449-1 1-1h4zm-12-26v18h-10v-18zm-10 20h10v6h-10z"/><path d="m23 35h2v2h-2z"/><path d="m27 35h2v2h-2z"/><path d="m31 35h2v2h-2z"/><path d="m35 35h2v2h-2z"/><path d="m39 35h2v2h-2z"/><path d="m23 39h2v2h-2z"/><path d="m27 39h2v2h-2z"/><path d="m31 39h2v2h-2z"/><path d="m35 39h2v2h-2z"/><path d="m39 39h2v2h-2z"/><path d="m23 43h2v2h-2z"/><path d="m27 43h2v2h-2z"/><path d="m31 43h2v2h-2z"/><path d="m35 43h2v2h-2z"/><path d="m39 43h2v2h-2z"/><path d="m47 37h2v2h-2z"/><path d="m51 37h2v2h-2z"/><path d="m47 41h2v2h-2z"/><path d="m51 41h2v2h-2z"/><path d="m47 45h2v2h-2z"/><path d="m51 45h2v2h-2z"/><path d="m47 49h2v2h-2z"/><path d="m51 49h2v2h-2z"/><path d="m15 37h2v2h-2z"/><path d="m11 37h2v2h-2z"/><path d="m15 41h2v2h-2z"/><path d="m11 41h2v2h-2z"/><path d="m15 45h2v2h-2z"/><path d="m11 45h2v2h-2z"/><path d="m15 49h2v2h-2z"/><path d="m11 49h2v2h-2z"/><path d="m51 29h2v2h-2z"/><path d="m55 .463-8.174 9.537h4.174v17h2v-19h-1.826l3.826-4.463 3.826 4.463h-1.826v23h2v-21h4.174z"/><path d="m11 29h2v2h-2z"/><path d="m5 31h2v-23h-1.826l3.826-4.463 3.826 4.463h-1.826v19h2v-17h4.174l-8.174-9.537-8.174 9.537h4.174z"/></svg>