<?xml version="1.0" encoding="iso-8859-1"?>
<!-- Generator: Adobe Illustrator 19.0.0, SVG Export Plug-In . SVG Version: 6.00 Build 0)  -->
<svg version="1.1" id="Capa_1" xmlns="http://www.w3.org/2000/svg" xmlns:xlink="http://www.w3.org/1999/xlink" x="0px" y="0px"
	 viewBox="0 0 512 512" style="enable-background:new 0 0 512 512;" xml:space="preserve">
<g>
	<g>
		<path d="M169.164,383.246c12.455-12.43,20.173-29.605,20.173-48.549c0-37.839-30.784-68.623-68.623-68.623
			S52.09,296.858,52.09,334.697c0,18.944,7.717,36.119,20.173,48.549C29.756,401.947,0,444.459,0,493.796
			c0,8.349,6.769,15.118,15.118,15.118h211.189c8.349,0,15.118-6.769,15.118-15.118
			C241.425,444.459,211.669,401.947,169.164,383.246z M120.713,296.31c21.166,0,38.387,17.221,38.387,38.387
			c0,21.166-17.221,38.387-38.387,38.387s-38.387-17.221-38.387-38.387C82.326,313.53,99.547,296.31,120.713,296.31z
			 M31.499,478.678c7.214-42.72,44.473-75.359,89.213-75.359c44.74,0,81.999,32.639,89.213,75.359H31.499z"/>
	</g>
</g>
<g>
	<g>
		<path d="M439.737,383.246c12.455-12.43,20.173-29.604,20.173-48.549c0-37.839-30.784-68.623-68.623-68.623
			s-68.623,30.784-68.623,68.623c0,18.944,7.717,36.119,20.173,48.549c-42.505,18.701-72.263,61.213-72.263,110.551
			c0,8.349,6.769,15.118,15.118,15.118h211.19c8.349,0,15.118-6.769,15.118-15.118C512,444.458,482.244,401.947,439.737,383.246z
			 M391.288,296.31c21.166,0,38.387,17.221,38.387,38.387c0,21.166-17.221,38.387-38.387,38.387s-38.387-17.221-38.387-38.387
			C352.901,313.53,370.122,296.31,391.288,296.31z M302.074,478.678c7.214-42.72,44.474-75.359,89.214-75.359
			c44.741,0,81.999,32.639,89.214,75.359H302.074z"/>
	</g>
</g>
<g>
	<g>
		<path d="M395.036,83.478h-60.422V39.419c0-20.034-16.299-36.334-36.333-36.334H119.189c-20.034,0-36.333,16.299-36.333,36.334
			v94.903c0,17.941,13.069,32.886,30.188,35.813V234.9c0,6.554,4.222,12.362,10.457,14.382c1.535,0.497,3.105,0.737,4.659,0.737
			c4.756,0,9.348-2.25,12.246-6.251l52.954-73.113h52.095v10.323c0,20.034,16.299,36.333,36.334,36.333h67.255v0l36.147,31.021
			c2.795,2.4,6.302,3.646,9.848,3.646c2.139,0,4.292-0.454,6.31-1.381c5.366-2.466,8.805-7.832,8.805-13.737v-22.845
			c12.509-5.747,21.215-18.394,21.215-33.036v-61.167C431.369,99.778,415.07,83.478,395.036,83.478z M185.642,140.419
			c-4.848,0-9.4,2.324-12.244,6.25l-30.118,41.585v-32.717c0-8.349-6.769-15.118-15.118-15.118h-8.973
			c-3.361,0-6.097-2.735-6.097-6.097V39.419c0-3.362,2.735-6.098,6.097-6.098h179.092c3.361,0,6.097,2.735,6.097,6.098v94.903
			c0,3.361-2.735,6.097-6.097,6.097H185.642z M401.134,180.978c0,3.361-2.735,6.097-6.097,6.097
			c-8.349,0-15.118,6.769-15.118,15.118v1.771l-15.433-13.243c-2.741-2.352-6.234-3.645-9.846-3.645h-72.853
			c-3.361,0-6.097-2.735-6.097-6.097v-10.323h22.591c20.034,0,36.333-16.299,36.333-36.333v-20.608h60.423
			c3.361,0,6.097,2.735,6.097,6.097V180.978z"/>
	</g>
</g>
<g>
</g>
<g>
</g>
<g>
</g>
<g>
</g>
<g>
</g>
<g>
</g>
<g>
</g>
<g>
</g>
<g>
</g>
<g>
</g>
<g>
</g>
<g>
</g>
<g>
</g>
<g>
</g>
<g>
</g>
</svg>
