<?xml version="1.0" encoding="iso-8859-1"?>
<!-- Generator: Adobe Illustrator 19.0.0, SVG Export Plug-In . SVG Version: 6.00 Build 0)  -->
<svg version="1.1" id="Capa_1" xmlns="http://www.w3.org/2000/svg" xmlns:xlink="http://www.w3.org/1999/xlink" x="0px" y="0px"
	 viewBox="0 0 512 512" style="enable-background:new 0 0 512 512;" xml:space="preserve">
<g>
	<g>
		<path d="M150.705,332.944l-0.071-0.402c-0.963-5.438-6.157-9.066-11.591-8.102c-5.438,0.964-9.065,6.153-8.102,11.592l0.071,0.402
			c0.859,4.848,5.077,8.257,9.835,8.257c0.579,0,1.167-0.051,1.756-0.155C148.041,343.572,151.668,338.383,150.705,332.944z"/>
	</g>
</g>
<g>
	<g>
		<path d="M436.687,438.963l27.643-160.296l20.439,3.604c0.578,0.103,1.158,0.152,1.737,0.152c2.038,0,4.043-0.623,5.736-1.809
			c2.172-1.521,3.652-3.843,4.112-6.455l15.025-85.211c3.405-19.308-7.454-38.297-25.821-45.155l-17.675-6.6
			c-0.115-0.043-0.218-0.106-0.308-0.182c-0.004-0.003-0.007-0.005-0.011-0.007c-0.275-0.237-0.417-0.607-0.351-0.982l0.884-5.013
			c3.415-1.359,6.691-3.138,9.763-5.327c10.034-7.15,16.607-18.19,18.747-30.323l1.561-8.85c0-0.003,0.001-0.007,0.001-0.01
			l0.746-4.232c2.187-12.401-0.425-25.285-7.748-35.529c-7.816-10.934-19.8-17.833-33.399-19.07
			c-9.427-0.858-18.959,1.27-27.128,6.052c-11.879,6.953-19.832,18.423-22.189,31.792l-0.885,5.019c0,0.001,0,0.002,0,0.002
			l-1.712,9.708c-2.87,16.279,3.245,32.098,14.763,42.364l-0.779,4.56c-0.156,0.911-0.947,1.576-1.871,1.573l-18.144-0.06
			c-19.606,0.162-36.304,14.292-39.709,33.601l-15.024,85.208c-0.959,5.439,2.672,10.625,8.111,11.584l20.483,3.612l-24.624,139.65
			c-16.712-4.494-33.712-7.754-50.934-9.773v-61.564h9.072c1.654,0,3.309-0.335,4.771-1.107c3.996-2.11,5.963-6.396,5.269-10.544
			l-10.549-63.015h14.052c5.523,0,10-4.477,10-10V162.07c0-9.715-3.509-18.728-9.416-25.72c0.028-0.305,0.047-0.613,0.047-0.926
			V66.366c0-35.875-28.487-65.811-64.358-66.358c-36.51-0.557-66.389,28.981-66.389,65.366v70.051c0,0.346,0.018,0.688,0.052,1.025
			c-5.856,6.979-9.33,15.953-9.33,25.621v84.263c0,5.523,4.477,10,10,10h14.065c0.154,0,0.303-0.016,0.455-0.023l-11.094,62.954
			c-0.684,3.879,0.966,7.895,4.44,10.154c1.679,1.091,3.679,1.582,5.682,1.582h9.103v61.55c-17.265,2.018-34.308,5.281-51.061,9.786
			l-5.105-28.953c-0.959-5.438-6.142-9.068-11.584-8.111c-5.439,0.959-9.071,6.146-8.112,11.584l5.513,31.268
			c-5.127,1.694-10.225,3.5-15.289,5.431l-25.5-144.618l15.757-2.778l5.178,29.366c0.855,4.852,5.075,8.266,9.836,8.266
			c0.559,0,1.127-0.048,1.697-0.145c5.452-0.933,9.057-6.525,8.096-11.972l-5.111-28.987l20.484-3.612
			c5.439-0.959,9.07-6.145,8.111-11.584l-15.024-85.21c-3.405-19.309-20.103-33.439-39.709-33.601l-18.266-0.151
			c-0.861-0.007-1.595-0.628-1.744-1.476l-0.784-4.446c11.519-10.266,17.633-26.085,14.763-42.365l-1.712-9.707c0,0,0-0.001,0-0.002
			l-0.744-4.221c-2.153-12.219-8.832-23.302-18.981-30.439C74.63,28.786,62.392,26.06,50.26,28.199
			c-12.129,2.139-22.695,8.883-29.743,18.988c-7.098,10.177-9.584,22.876-7.43,35.095l0.744,4.219c0,0.003,0.001,0.006,0.001,0.01
			l1.712,9.707c2.87,16.276,14.022,29.044,28.352,34.754l0.891,5.054c0.084,0.475-0.233,1.007-0.67,1.171l-17.675,6.6
			c-18.366,6.858-29.226,25.849-25.821,45.155l15.025,85.211c0.46,2.612,1.94,4.934,4.112,6.455
			c1.692,1.186,3.698,1.809,5.736,1.809c0.578,0,1.159-0.05,1.737-0.152l20.439-3.604l27.643,160.296
			c-26.26,15.365-50.492,34.072-72.383,55.963c-3.905,3.905-3.905,10.237,0,14.143c3.905,3.904,10.237,3.904,14.143,0
			c63.82-63.82,148.672-98.967,238.928-98.967s175.108,35.147,238.928,98.967c1.953,1.952,4.512,2.929,7.071,2.929
			c2.559,0,5.119-0.977,7.071-2.929c3.905-3.905,3.905-10.237,0-14.143C487.179,473.035,462.947,454.328,436.687,438.963z
			 M36.95,58.587c3.983-5.689,9.943-9.486,16.783-10.692c1.521-0.268,3.034-0.398,4.528-0.398c8.957,0,17.193,4.659,21.9,12.009
			l-7.638-2.846c-4.574-1.705-9.715,0.146-12.155,4.376c-4.377,7.594-11.838,12.823-20.47,14.345l-7.453,1.314
			C31.644,70.293,33.223,63.91,36.95,58.587z M36.15,96.35l7.221-1.273c11.613-2.048,21.963-8.097,29.392-16.985l13.589,5.063
			l0.099,0.559c2.489,14.119-6.972,27.631-21.09,30.12C52.483,116.1,40.114,108.43,36.15,96.35z M64.682,134.067
			c1.379-0.116,2.763-0.293,4.151-0.538c1.386-0.244,2.742-0.558,4.075-0.919c0.855,3.399,2.521,6.434,4.764,8.926L72,156.172
			l-9.172-11.066C64.401,141.737,65.08,137.938,64.682,134.067z M54.707,203.766c-0.959-5.439-6.143-9.07-11.584-8.112
			c-5.439,0.959-9.071,6.146-8.112,11.584l9.124,51.743l-10.529,1.856l-13.288-75.361c-1.73-9.811,3.788-19.46,13.121-22.945
			l13.634-5.091l20.397,24.608c1.917,2.313,4.75,3.618,7.698,3.618c0.533,0,1.07-0.042,1.606-0.129
			c3.5-0.569,6.438-2.95,7.719-6.257l11.91-30.732l15.608,0.129c9.962,0.083,18.449,7.264,20.179,17.074l13.288,75.362
			l-10.529,1.857l-9.124-51.743c-0.958-5.439-6.146-9.069-11.584-8.112c-5.439,0.959-9.071,6.146-8.112,11.584l9.124,51.744
			l-25.701,4.532c-0.003,0-0.007,0.001-0.01,0.001s-0.007,0.002-0.01,0.002l-25.701,4.532L54.707,203.766z M93.863,428.846
			L67.366,275.194l15.801-2.786L109.44,421.41C104.179,423.767,98.986,426.245,93.863,428.846z M210.628,65.374
			C210.627,40.355,230.981,20,256,20s45.374,20.354,45.374,45.374v58.244c-1.063-0.289-2.144-0.541-3.245-0.745l-18.068-3.341
			c-0.363-0.067-0.626-0.384-0.626-0.753v-4.874c7.889-6.672,12.911-16.634,12.911-27.751V70c0-5.523-4.477-10-10-10h-52.691
			c-5.523,0-10,4.477-10,10v16.154c0,11.161,5.061,21.158,13.003,27.83v4.795c0,0.369-0.264,0.686-0.627,0.753l-18.067,3.341
			c-1.132,0.209-2.244,0.468-3.336,0.768V65.374z M256,102.5c-9.013,0-16.346-7.333-16.346-16.346V80h32.691v6.154h0.001
			C272.346,95.167,265.013,102.5,256,102.5z M263.551,131.16l-7.549,10.273l-7.508-10.213c1.939-2.586,3.29-5.619,3.856-8.904
			c1.201,0.12,2.418,0.183,3.65,0.183c1.263,0,2.511-0.065,3.741-0.192C260.302,125.57,261.636,128.585,263.551,131.16z
			 M246,390.102h-12v-59.104h12V390.102z M278.127,390.102h-12v-59.104h12V390.102z M288.127,310.998h-32H256h-0.35H224h-7.46
			l13.745-78h52.221l13.058,78H288.127z M290.972,175.609c-5.523,0-10,4.477-10,10V213h-48.941v-27.391c0-5.523-4.477-10-10-10
			s-10,4.477-10,10v35.744l-2.775,15.747c-1.184-0.493-2.481-0.767-3.842-0.767h-4.065V162.07c0-9.576,6.834-17.79,16.25-19.53
			l12.672-2.343l17.676,24.046c1.884,2.563,4.876,4.078,8.058,4.077c3.182-0.001,6.173-1.515,8.058-4.079l17.679-24.059
			l12.751,2.358c9.416,1.741,16.25,9.955,16.25,19.53v74.263h-4.065c-1.137,0-2.225,0.199-3.243,0.548l-2.463-14.713v-36.559
			C300.972,180.086,296.495,175.609,290.972,175.609z M458.267,47.895c6.839,1.206,12.799,5.003,16.783,10.692
			c3.728,5.323,5.307,11.707,4.506,18.108l-7.453-1.314c-8.632-1.522-16.094-6.751-20.472-14.345
			c-1.829-3.173-5.176-5.007-8.666-5.007c-1.164,0-2.344,0.204-3.489,0.631l-7.638,2.846
			C437.332,50.93,447.627,46.018,458.267,47.895z M425.55,83.713l0.099-0.559l13.589-5.063c7.429,8.888,17.779,14.937,29.393,16.985
			l7.221,1.273c-3.965,12.081-16.33,19.758-29.212,17.484C432.522,111.344,423.061,97.832,425.55,83.713z M449.049,144.818
			l-10.107,11.365l-4.877-14.359c2.377-2.544,4.14-5.683,5.028-9.214c1.333,0.361,2.689,0.675,4.075,0.92
			c1.383,0.244,2.768,0.422,4.15,0.541C446.933,137.832,447.569,141.522,449.049,144.818z M366.521,241.115l13.289-75.364
			c1.73-9.811,10.216-16.992,20.179-17.074l15.238-0.126l10.303,30.331c1.145,3.371,3.996,5.879,7.485,6.585
			c0.66,0.134,1.325,0.199,1.984,0.199c2.824,0,5.554-1.198,7.472-3.355l22.2-24.966l13.889,5.186
			c9.333,3.485,14.851,13.135,13.121,22.946l-13.288,75.362l-10.529-1.856l9.124-51.743c0.959-5.439-2.673-10.625-8.112-11.584
			c-5.437-0.958-10.625,2.672-11.584,8.112l-9.124,51.744l-25.701-4.532c-0.003-0.001-0.007-0.002-0.01-0.002
			c-0.003,0-0.007-0.001-0.01-0.001l-25.701-4.532l9.124-51.744c0.959-5.439-2.673-10.625-8.112-11.584
			c-5.438-0.96-10.625,2.673-11.584,8.112l-9.124,51.743L366.521,241.115z M368.348,408.123l25.032-141.965l15.757,2.778
			l-25.5,144.618C378.573,411.623,373.475,409.817,368.348,408.123z M402.56,421.41l26.273-149.002l15.801,2.786l-26.497,153.651
			C413.014,426.245,407.821,423.767,402.56,421.41z"/>
	</g>
</g>
<g>
	<g>
		<path d="M256.03,430.1c-0.012,0-0.023-0.001-0.035-0.001c-6.35,0-10.166,5.058-10.187,9.956
			c-0.021,4.909,3.763,10.009,10.134,10.046c0.02,0,0.039,0,0.059,0c6.371,0,10.186-5.077,10.193-9.985
			C266.2,435.206,262.401,430.118,256.03,430.1z"/>
	</g>
</g>
<g>
	<g>
		<path d="M399.7,464.261c-30.087-15.277-62.34-25.574-95.861-30.605c-5.471-0.817-10.554,2.944-11.374,8.405
			c-0.82,5.462,2.943,10.554,8.405,11.374c31.399,4.712,61.604,14.354,89.775,28.658c1.451,0.737,2.997,1.086,4.52,1.086
			c3.646,0,7.161-2.001,8.924-5.475C406.59,472.78,404.625,466.761,399.7,464.261z"/>
	</g>
</g>
<g>
</g>
<g>
</g>
<g>
</g>
<g>
</g>
<g>
</g>
<g>
</g>
<g>
</g>
<g>
</g>
<g>
</g>
<g>
</g>
<g>
</g>
<g>
</g>
<g>
</g>
<g>
</g>
<g>
</g>
</svg>
