<svg height="512pt" viewBox="0 0 512 512" width="512pt" xmlns="http://www.w3.org/2000/svg"><path d="m292.339844 119.960938c-.0625 0-.121094 0-.179688 0-5.523437-.097657-9.921875-4.65625-9.820312-10.175782.3125-17.648437 7.980468-34.839844 21.597656-48.398437 13.621094-13.566407 30.855469-21.175781 48.527344-21.425781.339844-.003907.699218-.007813 1.050781-.007813 5.523437 0 10 4.480469 10 10 0 5.523437-4.476563 10-10 10-.253906 0-.511719.003906-.761719.007813-12.460937.175781-24.78125 5.714843-34.703125 15.59375-9.914062 9.875-15.496093 22.15625-15.714843 34.585937-.097657 5.460937-4.554688 9.820313-9.996094 9.820313zm0 0"/><path d="m353.515625 189.058594c-3.25 0-6.296875-1.582032-8.171875-4.238282l-21.28125-30.167968c-3.183594-4.511719-2.105469-10.753906 2.40625-13.9375 4.515625-3.183594 10.753906-2.105469 13.9375 2.410156l13.109375 18.585938 13.105469-18.585938c3.183594-4.515625 9.425781-5.59375 13.9375-2.410156 4.511718 3.183594 5.589844 9.421875 2.410156 13.9375l-21.28125 30.167968c-1.875 2.65625-4.921875 4.238282-8.171875 4.238282zm0 0"/><path d="m501.425781 512c-.652343 0-1.300781-.070312-1.949219-.199219-.640624-.121093-1.273437-.320312-1.871093-.570312-.601563-.25-1.179688-.558594-1.730469-.921875-.539062-.359375-1.058594-.777344-1.519531-1.238282-.460938-.460937-.878907-.96875-1.242188-1.519531-.359375-.539062-.667969-1.121093-.917969-1.730469-.25-.601562-.441406-1.230468-.570312-1.871093s-.191406-1.300781-.191406-1.949219.0625-1.308594.191406-1.949219.320312-1.269531.570312-1.871093c.25-.609376.558594-1.191407.917969-1.730469.363281-.550781.78125-1.058594 1.242188-1.519531.460937-.460938.980469-.878907 1.519531-1.238282.550781-.363281 1.128906-.671875 1.730469-.921875.597656-.25 1.230469-.449219 1.871093-.570312 1.289063-.257813 2.617188-.257813 3.910157 0 .636719.121093 1.269531.320312 1.867187.570312.601563.25 1.179688.558594 1.730469.921875.539063.359375 1.0625.777344 1.519531 1.238282.460938.460937.882813.96875 1.242188 1.519531.359375.539062.667968 1.121093.917968 1.730469.25.601562.441407 1.230468.570313 1.871093s.191406 1.300781.191406 1.949219-.0625 1.308594-.191406 1.949219-.320313 1.269531-.570313 1.871093c-.25.609376-.558593 1.191407-.917968 1.730469-.359375.550781-.78125 1.058594-1.242188 1.519531-.457031.460938-.980468.878907-1.519531 1.238282-.550781.363281-1.128906.671875-1.730469.921875-.597656.25-1.230468.449219-1.867187.570312-.652344.128907-1.300781.199219-1.960938.199219zm0 0"/><path d="m291.59375 203.378906c13.324219 8.960938 20.441406 20.8125 28.949219 35.703125v27.269531c0 5.523438 4.476562 10 10 10h45.945312c5.523438 0 10-4.476562 10-10v-27.214843c8.550781-14.929688 15.695313-26.8125 29.105469-35.859375 30.722656-20.726563 49.066406-55.183594 49.066406-92.167969-.003906-61.265625-49.859375-111.109375-111.144531-111.109375-.539063 0-1.082031.00390625-1.617187.0117188-28.097657.3945312-55.144532 12.1367192-76.15625 33.0664062-21.007813 20.925781-32.855469 47.914063-33.351563 75.996094-.671875 37.890625 17.71875 73.144531 49.203125 94.304687zm74.894531 52.972656h-25.945312v-10.09375h25.945312zm-104.101562-146.921874c.40625-22.859376 10.160156-44.945313 27.46875-62.183594 17.3125-17.242188 39.445312-26.914063 62.335937-27.238282.441406-.003906.882813-.007812 1.324219-.007812 50.257813 0 91.144531 40.871094 91.144531 91.105469 0 30.328125-15.050781 58.585937-40.253906 75.589843-16.066406 10.839844-24.976562 24.6875-33.582031 39.5625h-34.582031c-8.558594-14.835937-17.445313-28.691406-33.492188-39.476562-25.824219-17.359375-40.914062-46.277344-40.363281-77.351562zm0 0"/><path d="m458.476562 492h-68.109374v-80.109375h11.582031c3.625 0 6.964843-1.960937 8.734375-5.128906 1.765625-3.167969 1.679687-7.042969-.226563-10.125l-48.433593-78.425781c-1.824219-2.949219-5.042969-4.746094-8.507813-4.746094s-6.6875 1.796875-8.507813 4.746094l-48.4375 78.425781c-1.902343 3.085937-1.988281 6.957031-.222656 10.125s5.105469 5.128906 8.730469 5.128906h11.582031v80.109375h-40.601562v-80.972656c0-16.460938-13.394532-29.855469-29.855469-29.855469h-48.1875c-.339844 0-.671875.019531-1.003906.050781-.035157-.003906-.074219-.007812-.109375-.011718-2.511719-.863282-8.902344-8.335938-9.71875-31.945313 19.007812-14.160156 30.21875-32.457031 34.335937-40.054687v-.003907c5.203125-9.609375 8.671875-35.710937 10.609375-56.808593 8.957032-6.582032 10.960938-14.492188 10.960938-20.242188v-41.332031c0-24.210938-8.355469-45.332031-24.15625-61.082031-18.917969-18.851563-47.570313-29.214844-80.726563-29.214844-.183593 0-.367187 0-.550781 0-62.617188.214844-104.6875 36.917968-104.6875 91.328125v40.300781c0 5.53125 1.832031 13.132812 10.003906 19.535156 1.902344 25.648438 6.273438 47.425782 11.738282 57.515625 4.113281 7.601563 15.324218 25.898438 34.335937 40.058594-.816406 23.609375-7.207031 31.082031-9.71875 31.945313-.035156.003906-.070313.007812-.109375.011718-.328125-.03125-.664062-.050781-1.003906-.050781h-48.359375c-16.460938 0-29.855469 13.394531-29.855469 29.855469v90.972656c0 5.523438 4.476562 10 10 10h448.476562c5.523438 0 10-4.476562 10-10s-4.476562-10-10-10zm-320.75-371.472656c27.988282-.101563 51.859376 8.207031 67.085938 23.382812 12.125 12.082032 18.273438 27.867188 18.273438 46.914063v27.488281c-1.546876.117188-3.074219.597656-4.449219 1.4375-11.847657 7.242188-25.496094 11.070312-39.464844 11.070312-40.976563 0-65.605469-14.355468-73.210937-42.671874-1.121094-4.175782-4.800782-7.160157-9.121094-7.390626-4.308594-.230468-8.296875 2.335938-9.859375 6.367188-6.378907 16.4375-18.617188 30.375-34.011719 38.933594v-34.203125c0-52.429688 45.660156-71.191407 84.757812-71.328125zm-65.429687 179.15625c-3.753906-6.929688-8.265625-28.503906-9.804687-56.039063 13.128906-7.265625 24.445312-17.621093 32.910156-29.960937 15.125 24.121094 44.074218 37.136718 83.769531 37.136718 11.539063 0 22.910156-2.070312 33.589844-6.0625-2.183594 26.894532-6.066407 49.820313-8.828125 54.925782-3.722656 6.871094-14.328125 24.144531-32.367188 36.128906-2.789062 1.851562-4.464844 4.980469-4.464844 8.328125 0 25.136719 5.335938 39.207031 11.449219 47.074219-4.605469 3.316406-10.128906 7.390625-15.792969 11.785156-11.945312 9.265625-19.664062 16.1875-24.71875 21.496094-5.039062-5.308594-12.734374-12.222656-24.636718-21.488282-5.640625-4.390624-11.144532-8.457031-15.730469-11.773437 6.117187-7.863281 11.464844-21.933594 11.464844-47.089844 0-3.347656-1.679688-6.476562-4.46875-8.328125-18.046875-11.988281-28.648438-29.261718-32.371094-36.132812zm-52.296875 192.316406v-80.972656c0-5.433594 4.421875-9.855469 9.855469-9.855469h47.25c4.40625 3.0625 14.007812 9.84375 23.855469 17.5 24.902343 19.363281 27.519531 25.78125 27.613281 26.035156 1.390625 4.035157 5.183593 6.746094 9.453125 6.746094 4.265625 0 8.0625-2.699219 9.449218-6.734375.101563-.261719 2.726563-6.6875 27.707032-26.046875 9.882812-7.660156 19.523437-14.441406 23.933594-17.496094h47.085937c5.433594 0 9.855469 4.417969 9.855469 9.855469v80.96875zm316.660156 0v-80.109375h8.488282c5.523437 0 10-4.476563 10-10s-4.476563-10-10-10h-22.140626l30.507813-49.394531 30.503906 49.394531h-3.652343c-5.523438 0-10 4.476563-10 10v90.109375zm0 0"/></svg>