<svg id="Layer_1" enable-background="new 0 0 511.977 511.977" height="512" viewBox="0 0 511.977 511.977" width="512" xmlns="http://www.w3.org/2000/svg"><g><path d="m116.276 247.68h91.267c4.564 0 8.817 2.456 11.1 6.408l30.439 52.722c1.34 2.32 3.815 3.75 6.495 3.75s5.155-1.43 6.495-3.75l30.439-52.722c2.282-3.952 6.535-6.408 11.1-6.408h91.267c15.338 0 27.816-12.479 27.816-27.817v-192.046c0-15.338-12.478-27.817-27.816-27.817h-278.602c-15.338 0-27.816 12.479-27.816 27.817v19.203c0 9.697 15 9.697 15 0v-19.203c0-7.067 5.749-12.817 12.816-12.817h278.602c7.067 0 12.816 5.75 12.816 12.817v192.046c0 7.067-5.749 12.817-12.816 12.817h-91.267c-9.906 0-19.138 5.33-24.09 13.908l-23.944 41.472-23.944-41.471c-4.952-8.579-14.184-13.909-24.09-13.909h-91.267c-7.067 0-12.816-5.75-12.816-12.817v-132.874c0-9.697-15-9.697-15 0v132.874c0 15.338 12.478 27.817 27.816 27.817z"/><path d="m509.581 451.251c-3.792-7.979-12.06-13.181-21.063-13.251-2.585-.02-5.181-.032-7.778-.042v-24.783c0-4.142-3.357-7.5-7.5-7.5-15.209 0-31.099-2.975-49.636-9.306v-10.25c0-3.023-1.815-5.751-4.604-6.918l-40.232-16.839c-4.862-2.036-10.396 1.648-10.396 6.918v4.014c-20.463-8.83-38.243-15.273-55.851-16.143-21.759-1.08-40.241 6.918-56.261 24.378-16.4-17.866-35.404-25.829-57.861-24.284-21.792 1.5-44.292 11.534-68.112 22.158-28.961 12.916-58.908 26.271-91.005 26.271-4.143 0-7.5 3.358-7.5 7.5v24.826h-10.205c-28.306 0-28.352 44 0 44h218.881c3.048 0 5.792-1.844 6.943-4.666 2.936-7.193 13.416-7.193 16.352 0 1.151 2.821 3.896 4.666 6.943 4.666h97.675v22.5c0 5.632 6.25 9.29 11.161 6.546l40.232-22.5c2.37-1.326 3.839-3.83 3.839-6.546h14.286c9.697 0 9.697-15 0-15h-14.286v-14s60.059-.037 64.797 0c5.191.04 11.014 5.919 6.64 11.378-3.083 3.843-9.649 2.622-13.869 2.622-9.697 0-9.697 15 0 15 1.5.013 3 .026 4.5.039 6.693 0 15-.704 21.072-8.278 5.321-6.638 6.382-15.053 2.838-22.51zm-141.21-61.59v48.339h-104.59v-42.259c28.441-34.874 58.994-26.125 104.59-6.08zm-321.59 30.797c32.449-1.859 62.698-15.351 89.614-27.355 22.572-10.067 43.893-19.575 63.032-20.893 19.391-1.339 35.12 6.154 49.312 23.533v42.257h-201.958zm228.324 46.542c-9.293-13.342-29.764-13.342-39.057 0h-214.471c-9.048 0-9.048-14 0-14h346.794v14zm133.499 10.601-25.232 14.111v-106.782c0-.009 0-.018 0-.026v-4.355l25.232 10.561zm44.296-39.632c-5.916.015-11.833.031-17.748.031h-11.549v-25.831c15.218 4.855 28.932 7.556 42.136 8.295v17.479c-4.31.006-8.605.015-12.839.026z"/><path d="m155.164 169.235 5.766-15.14h38.715l5.706 15.118c3.355 8.895 17.456 3.77 14.033-5.296l-30.262-80.187c-2.974-7.875-14.455-7.945-17.437-.018l-30.539 80.185c-3.451 9.061 10.566 14.4 14.018 5.338zm25.212-66.197 13.608 36.058h-27.341z"/><path d="m302.149 170.14c1.312 2.419 3.842 3.926 6.594 3.926h54.256c9.697 0 9.697-15 0-15h-40.417l45.438-69.736c3.193-4.901-.435-11.594-6.284-11.594h-51.325c-9.697 0-9.697 15 0 15h37.486l-45.438 69.736c-1.502 2.305-1.621 5.248-.31 7.668z"/><path d="m280.17 133.401c9.697 0 9.697-15 0-15h-39.23c-9.697 0-9.697 15 0 15z"/></g></svg>