<?xml version="1.0" encoding="iso-8859-1"?>
<!-- Generator: Adobe Illustrator 19.0.0, SVG Export Plug-In . SVG Version: 6.00 Build 0)  -->
<svg version="1.1" id="Capa_1" xmlns="http://www.w3.org/2000/svg" xmlns:xlink="http://www.w3.org/1999/xlink" x="0px" y="0px"
	 viewBox="0 0 401.76 401.76" style="enable-background:new 0 0 401.76 401.76;" xml:space="preserve">
<g>
	<g>
		<polygon points="128.88,83.2 128.88,57.76 112.88,57.76 112.88,80 90.448,75.52 87.312,91.208 112.88,96.32 112.88,177.76 
			128.88,177.76 128.88,99.52 151.312,104 154.448,88.312 		"/>
	</g>
</g>
<g>
	<g>
		
			<rect x="96.896" y="173.925" transform="matrix(0.1962 -0.9806 0.9806 0.1962 -118.2309 268.8932)" width="16.001" height="65.274"/>
	</g>
</g>
<g>
	<g>
		
			<rect x="152.865" y="209.606" transform="matrix(0.1963 -0.9805 0.9805 0.1963 -84.2428 332.7509)" width="15.999" height="16.319"/>
	</g>
</g>
<g>
	<g>
		<rect x="112.883" y="192.827" transform="matrix(0.1961 -0.9806 0.9806 0.1961 -139.9072 312.9044)" width="16" height="97.906"/>
	</g>
</g>
<g>
	<g>
		
			<rect x="72.865" y="257.604" transform="matrix(0.1963 -0.9805 0.9805 0.1963 -195.6025 292.8835)" width="15.999" height="16.319"/>
	</g>
</g>
<g>
	<g>
		
			<rect x="128.889" y="244.324" transform="matrix(0.1962 -0.9806 0.9806 0.1962 -161.5465 356.8519)" width="16.001" height="65.274"/>
	</g>
</g>
<g>
	<g>
		<rect x="88.912" y="276.446" transform="matrix(0.1961 -0.9806 0.9806 0.1961 -217.1721 336.9428)" width="16" height="48.953"/>
	</g>
</g>
<g>
	<g>
		<rect x="144.884" y="295.891" transform="matrix(0.1961 -0.9806 0.9806 0.1961 -183.2411 400.8999)" width="16" height="32.633"/>
	</g>
</g>
<g>
	<g>
		
			<rect x="232.237" y="204.949" transform="matrix(0.9805 -0.1963 0.1963 0.9805 -36.6499 56.1401)" width="65.269" height="15.999"/>
	</g>
</g>
<g>
	<g>
		
			<rect x="312.705" y="193.752" transform="matrix(0.9805 -0.1963 0.1963 0.9805 -33.3621 66.914)" width="16.319" height="15.999"/>
	</g>
</g>
<g>
	<g>
		<rect x="231.915" y="233.752" transform="matrix(0.9805 -0.1963 0.1963 0.9805 -41.9928 59.8402)" width="97.9" height="15.999"/>
	</g>
</g>
<g>
	<g>
		
			<rect x="232.705" y="273.744" transform="matrix(0.9805 -0.1963 0.1963 0.9805 -50.6218 52.7658)" width="16.319" height="15.999"/>
	</g>
</g>
<g>
	<g>
		
			<rect x="264.232" y="262.544" transform="matrix(0.9805 -0.1963 0.1963 0.9805 -47.3337 63.5414)" width="65.269" height="15.999"/>
	</g>
</g>
<g>
	<g>
		
			<rect x="232.391" y="302.544" transform="matrix(0.9805 -0.1963 0.1963 0.9805 -55.9642 56.4674)" width="48.95" height="15.999"/>
	</g>
</g>
<g>
	<g>
		
			<rect x="296.54" y="291.348" transform="matrix(0.9805 -0.1963 0.1963 0.9805 -52.6772 67.2413)" width="32.631" height="15.999"/>
	</g>
</g>
<g>
	<g>
		<rect x="232.234" y="60.957" transform="matrix(0.9805 -0.1963 0.1963 0.9805 -8.3831 53.3377)" width="65.269" height="15.999"/>
	</g>
</g>
<g>
	<g>
		<rect x="312.702" y="49.76" transform="matrix(0.9805 -0.1963 0.1963 0.9805 -5.0954 64.1119)" width="16.319" height="15.999"/>
	</g>
</g>
<g>
	<g>
		<rect x="231.912" y="89.752" transform="matrix(0.9805 -0.1963 0.1963 0.9805 -13.7244 57.0376)" width="97.9" height="15.999"/>
	</g>
</g>
<g>
	<g>
		<rect x="232.71" y="129.752" transform="matrix(0.9805 -0.1963 0.1963 0.9805 -22.3549 49.965)" width="16.319" height="15.999"/>
	</g>
</g>
<g>
	<g>
		
			<rect x="264.236" y="118.576" transform="matrix(0.9805 -0.1963 0.1963 0.9805 -19.0715 60.7413)" width="65.269" height="15.999"/>
	</g>
</g>
<g>
	<g>
		
			<rect x="232.704" y="161.752" transform="matrix(0.9805 -0.1963 0.1963 0.9805 -28.6369 50.5864)" width="16.319" height="15.999"/>
	</g>
</g>
<g>
	<g>
		<rect x="264.23" y="150.552" transform="matrix(0.9805 -0.1963 0.1963 0.9805 -25.3487 61.362)" width="65.269" height="15.999"/>
	</g>
</g>
<g>
	<g>
		<path d="M368.88,33.76V0l-168,33.6L32.88,0v33.76h-32v336h192v1.76v30.24h80v-32h128v-336H368.88z M16.88,353.76v-304h16v286.552
			l87.208,17.448H16.88z M192.88,352l-144-28.8V33.76V19.52l144,28.8V352z M256.88,369.76v16h-48v-14.24v-3.2l19.2-3.84l28.8-5.76
			V369.76z M208.88,352.008V48.312l144-28.8V33.76v289.448L208.88,352.008z M384.88,353.76H281.688l87.192-17.448V49.76h16V353.76z"
			/>
	</g>
</g>
<g>
</g>
<g>
</g>
<g>
</g>
<g>
</g>
<g>
</g>
<g>
</g>
<g>
</g>
<g>
</g>
<g>
</g>
<g>
</g>
<g>
</g>
<g>
</g>
<g>
</g>
<g>
</g>
<g>
</g>
</svg>
