<svg id="Capa_1" enable-background="new 0 0 512 512" height="512" viewBox="0 0 512 512" width="512" xmlns="http://www.w3.org/2000/svg"><g><path d="m482 20h-11.713c-4.128-11.641-15.249-20-28.287-20h-40c-13.038 0-24.159 8.359-28.287 20h-11.713c-16.542 0-30 13.458-30 30s13.458 30 30 30h120c16.542 0 30-13.458 30-30s-13.458-30-30-30zm0 40h-120c-5.514 0-10-4.486-10-10s4.486-10 10-10h20c5.523 0 10-4.478 10-10 0-5.514 4.486-10 10-10h40c5.514 0 10 4.486 10 10 0 5.523 4.477 10 10 10h20c5.514 0 10 4.486 10 10s-4.486 10-10 10z"/><path d="m502 492h-126.027c6.292-8.362 10.027-18.753 10.027-30 0-26.963-21.455-48.995-48.188-49.954l-11.948-71.689c-.804-4.823-4.976-8.357-9.864-8.357h-40c-5.523 0-10 4.478-10 10 0 5.523 4.477 10 10 10h31.529l6.667 40c-14.433 0-65.932 0-88.196 0v-20h10c5.523 0 10-4.477 10-10 0-5.522-4.477-10-10-10h-40c-5.523 0-10 4.478-10 10 0 5.523 4.477 10 10 10h10v26.973l-11.146 16.719c-5.949-2.426-12.33-3.692-18.854-3.692-27.57 0-50 22.43-50 50 0 11.247 3.735 21.638 10.027 30h-126.027c-5.523 0-10 4.478-10 10 0 5.523 4.477 10 10 10h492c5.523 0 10-4.477 10-10 0-5.522-4.477-10-10-10zm-136-30c0 16.542-13.458 30-30 30s-30-13.458-30-30c0-11.245 6.133-21.147 15.482-26.284l4.655 27.928c.908 5.449 6.061 9.128 11.509 8.22 5.447-.909 9.127-6.062 8.219-11.509l-4.649-27.892c14.062 2.477 24.784 14.774 24.784 29.537zm-47.921-46.696c-19.059 7.25-32.079 25.55-32.079 46.696 0 11.247 3.735 21.638 10.027 30h-80.054c4.377-5.817 7.516-12.614 9.021-20h31.006c4.037 0 7.678-2.428 9.231-6.154l22.436-53.846h29.862zm-96.726-3.304h44.647l-16.667 40h-24.356c-1.941-9.54-6.625-18.291-13.49-25.202zm-75.353 50c0-16.542 13.458-30 30-30 2.505 0 4.971.327 7.361.931l-15.681 23.521c-3.064 4.596-1.822 10.804 2.773 13.868 4.576 3.051 10.791 1.841 13.868-2.772l15.683-23.525c3.837 5.118 5.996 11.39 5.996 17.977 0 16.542-13.458 30-30 30s-30-13.458-30-30z"/><path d="m30 20c-16.542 0-30 13.458-30 30s13.458 30 30 30h120c16.542 0 30-13.458 30-30s-13.458-30-30-30h-11.713c-4.128-11.641-15.249-20-28.287-20h-40c-13.038 0-24.159 8.359-28.287 20zm20 20c5.523 0 10-4.478 10-10 0-5.514 4.486-10 10-10h40c5.514 0 10 4.486 10 10 0 5.523 4.477 10 10 10h20c5.514 0 10 4.486 10 10s-4.486 10-10 10h-120c-5.514 0-10-4.486-10-10s4.486-10 10-10z"/><circle cx="256.001" cy="296" r="10"/><path d="m301.001 286c-5.523 0-10 4.478-10 10 0 5.523 4.477 10 10 10h200.999c3.729 0 7.148-2.074 8.87-5.382s1.461-7.298-.677-10.353l-126-180c-1.943-2.775-5.161-4.377-8.544-4.26-3.386.119-6.48 1.944-8.224 4.85l-25.527 42.548-77.329-128.557c-1.808-3.007-5.06-4.846-8.569-4.846s-6.761 1.839-8.569 4.846l-77.328 128.558-25.527-42.548c-1.743-2.905-4.838-4.73-8.224-4.85-3.39-.108-6.602 1.485-8.544 4.26l-126 180c-2.138 3.055-2.399 7.045-.677 10.353 1.721 3.307 5.14 5.381 8.869 5.381h201.001c5.523 0 10-4.477 10-10 0-5.522-4.477-10-10-10h-97.317l81.943-136.23 23.301 23.301c3.905 3.904 10.237 3.904 14.143 0l22.929-22.928 22.929 22.929c3.906 3.905 10.237 3.905 14.143 0l23.301-23.301 81.943 136.229zm-210.656 0h-61.138l106.147-151.64 23.072 38.456zm195.655-134.143-22.929-22.929c-3.905-3.904-10.237-3.904-14.143 0l-22.928 22.929-19.749-19.749 49.749-82.707 49.749 82.707zm67.574 20.959 23.072-38.456 106.148 151.64h-61.139z"/></g></svg>