<svg id="Capa_1" enable-background="new 0 0 512 512" height="512" viewBox="0 0 512 512" width="512" xmlns="http://www.w3.org/2000/svg"><g><path d="m211.895 394.335v-9.916c0-4.143-3.358-7.5-7.5-7.5s-7.5 3.357-7.5 7.5v9.916c0 4.143 3.358 7.5 7.5 7.5s7.5-3.357 7.5-7.5z"/><path d="m315.105 394.335v-9.916c0-4.143-3.358-7.5-7.5-7.5s-7.5 3.357-7.5 7.5v9.916c0 4.143 3.358 7.5 7.5 7.5s7.5-3.357 7.5-7.5z"/><path d="m256 407.738c7.382 0 14.402-3.197 19.26-8.771 2.721-3.123 2.396-7.86-.727-10.582-3.124-2.721-7.86-2.396-10.582.727-2.008 2.305-4.906 3.626-7.951 3.626s-5.943-1.321-7.951-3.626c-2.721-3.122-7.459-3.447-10.582-.727-3.123 2.722-3.448 7.459-.727 10.582 4.858 5.574 11.878 8.771 19.26 8.771z"/><path d="m446 0h-380c-15.164 0-27.5 12.336-27.5 27.5v457c0 15.164 12.336 27.5 27.5 27.5h380c15.164 0 27.5-12.336 27.5-27.5v-457c0-15.164-12.336-27.5-27.5-27.5zm12.5 484.5c0 6.893-5.607 12.5-12.5 12.5h-380c-6.893 0-12.5-5.607-12.5-12.5v-457c0-6.893 5.607-12.5 12.5-12.5h380c6.893 0 12.5 5.607 12.5 12.5z"/><path d="m426 40h-110c-3.306 0-6.223 2.165-7.179 5.33l-80 264.667c-.687 2.271-.257 4.735 1.157 6.641 1.415 1.906 3.648 3.029 6.022 3.029h190c4.142 0 7.5-3.357 7.5-7.5v-118.334c0-4.143-3.358-7.5-7.5-7.5s-7.5 3.357-7.5 7.5v43.778l-32.908 25.329 15.157-42.603c.83-2.33.456-4.921-.998-6.922-1.455-2.002-3.813-3.162-6.275-3.089l-45.201 1.251 37.303-25.557c2.041-1.398 3.261-3.714 3.261-6.188s-1.22-4.789-3.261-6.188l-37.303-25.556 45.201 1.25c2.493.062 4.821-1.087 6.275-3.089 1.454-2.001 1.828-4.592.998-6.922l-15.157-42.602 32.908 25.329v43.777c0 4.143 3.358 7.5 7.5 7.5s7.5-3.357 7.5-7.5v-118.331c0-4.143-3.358-7.5-7.5-7.5zm-7.5 63.127-43.933-33.815c-2.635-2.028-6.292-2.08-8.983-.124-2.691 1.955-3.773 5.448-2.658 8.581l20.021 56.273-59.706-1.651c-3.33-.1-6.313 2.017-7.34 5.18-1.028 3.163.15 6.625 2.894 8.505l49.274 33.757-49.274 33.758c-2.744 1.88-3.922 5.342-2.894 8.505s4.039 5.276 7.34 5.18l59.706-1.652-20.021 56.274c-1.115 3.133-.033 6.626 2.658 8.581 1.316.956 2.862 1.433 4.408 1.433 1.615 0 3.229-.521 4.575-1.557l43.933-33.815v48.127h-172.398l75.466-249.667h96.932z"/><path d="m426 344.667h-271.983c-4.142 0-7.5 3.357-7.5 7.5s3.358 7.5 7.5 7.5h264.483v97.333h-325v-97.333h32.517c4.142 0 7.5-3.357 7.5-7.5s-3.358-7.5-7.5-7.5h-40.017c-4.142 0-7.5 3.357-7.5 7.5v112.333c0 4.143 3.358 7.5 7.5 7.5h340c4.142 0 7.5-3.357 7.5-7.5v-112.333c0-4.143-3.358-7.5-7.5-7.5z"/><path d="m86 319.667h110c3.306 0 6.223-2.165 7.179-5.33l80-264.667c.687-2.271.257-4.735-1.157-6.641-1.415-1.906-3.648-3.029-6.022-3.029h-90.412c-.012 0-.024 0-.036 0h-99.552c-4.142 0-7.5 3.357-7.5 7.5v156.652.049 107.966c0 4.143 3.358 7.5 7.5 7.5zm7.5-264.667h67.905l-12.477 8.548c-2.041 1.398-3.261 3.714-3.261 6.188s1.22 4.789 3.261 6.188l39.589 27.123-47.971-1.328c-2.476-.077-4.821 1.088-6.275 3.089-1.455 2.001-1.828 4.591-.999 6.922l16.086 45.213-38.028-29.271c-1.961-1.509-4.539-1.953-6.892-1.189-2.353.765-4.178 2.641-4.877 5.014l-6.061 20.574zm0 150.15 17.356-58.915 49.528 38.121c2.635 2.027 6.293 2.079 8.983.124 2.691-1.955 3.773-5.448 2.658-8.581l-20.95-58.885 62.476 1.729c3.302.078 6.313-2.016 7.34-5.18 1.028-3.163-.15-6.625-2.894-8.505l-51.561-35.324 21.509-14.734h77.952l-75.466 249.667h-96.931z"/></g></svg>