<svg id="Capa_1" enable-background="new 0 0 511.75 511.75" height="512" viewBox="0 0 511.75 511.75" width="512" xmlns="http://www.w3.org/2000/svg"><g><path d="m511.75 411.072c0-55.505-45.157-100.662-100.662-100.662-24.688 0-47.324 8.939-64.854 23.743-.622.456-1.212.968-1.77 1.53-20.86 18.457-34.037 45.411-34.037 75.388 0 55.505 45.156 100.662 100.661 100.662 24.43 0 46.852-8.751 64.305-23.278.582-.423 1.136-.896 1.663-1.412 21.242-18.469 34.694-45.678 34.694-75.971zm-156.645-43.042c9.412 12.248 14.646 27.334 14.646 43.042 0 15.78-5.155 30.76-14.639 43.05-9.196-11.93-14.685-26.857-14.685-43.05 0-16.189 5.486-31.113 14.678-43.042zm22.95 105.481c14.06-17.71 21.696-39.487 21.696-62.439 0-22.855-7.751-44.798-21.702-62.436 9.867-5.243 21.109-8.226 33.04-8.226 11.645 0 22.63 2.849 32.325 7.86-14.245 17.775-21.986 39.692-21.986 62.802 0 23.043 7.854 45.108 21.988 62.801-9.695 5.011-20.682 7.861-32.327 7.861-11.929 0-23.169-2.983-33.034-8.223zm88.515-18.759c-9.727-12.355-15.143-27.676-15.143-43.68 0-16.054 5.335-31.28 15.137-43.689 9.497 12.033 15.187 27.204 15.187 43.689-.001 16.48-5.687 31.648-15.181 43.68z"/><path d="m362.863 240.449c12.436-10.552 24.592-21.752 36.129-33.288l92.9-92.9c26.101-26.1 26.101-68.569 0-94.669-26.1-26.1-68.568-26.1-94.67 0l-92.899 92.9c-11.536 11.536-22.735 23.691-33.288 36.128-.172.203-.339.41-.5.622l-63.564 83.542c-8.398 11.039-17.086 21.629-25.822 31.477-12.17 13.72-24.836 27.273-37.732 40.384-.026.026-.055.047-.081.073-.041.041-.075.086-.115.128-1.983 2.015-3.97 4.02-5.963 6.013l-74.908 74.909c-1.693-.146-3.399-.232-5.118-.232-15.647 0-30.358 6.094-41.424 17.159l-11.414 11.413c-5.858 5.858-5.858 15.355 0 21.213l71.769 71.769c2.929 2.929 6.768 4.394 10.606 4.394 3.839 0 7.678-1.464 10.606-4.394l11.414-11.414c11.065-11.065 17.159-25.776 17.159-41.424 0-1.719-.087-3.425-.232-5.118l74.909-74.908c1.997-1.997 4.006-3.988 6.025-5.974.037-.036.078-.067.115-.104.023-.023.043-.049.066-.073 13.119-12.905 26.675-25.573 40.392-37.74 9.85-8.737 20.439-17.425 31.478-25.822l83.542-63.564c.21-.162.418-.329.62-.5zm-275.287 234.014-.808.807-50.556-50.555.808-.807c5.399-5.399 12.576-8.372 20.211-8.372s14.812 2.973 20.211 8.372l10.134 10.134c5.398 5.398 8.372 12.576 8.372 20.21.001 7.635-2.973 14.812-8.372 20.211zm21.213-61.635-10.134-10.134c-1.823-1.823-3.753-3.497-5.762-5.045l61.08-61.08 20.941 20.941-61.08 61.08c-1.548-2.009-3.222-3.939-5.045-5.762zm151.746-132.191c-11.634 8.85-22.811 18.02-33.22 27.254-10.465 9.282-20.838 18.85-31.005 28.589l-21.307-21.307c9.735-10.164 19.303-20.536 28.589-31.004 9.232-10.409 18.402-21.586 27.254-33.221l63.32-83.223c9.951-11.71 20.503-23.156 31.369-34.022l92.899-92.899c14.404-14.403 37.84-14.403 52.244 0 14.403 14.404 14.403 37.839 0 52.243l-92.9 92.899c-10.867 10.867-22.312 21.42-34.022 31.369z"/></g></svg>