<?xml version="1.0" encoding="iso-8859-1"?>
<!-- Generator: Adobe Illustrator 16.0.0, SVG Export Plug-In . SVG Version: 6.00 Build 0)  -->
<!DOCTYPE svg PUBLIC "-//W3C//DTD SVG 1.1//EN" "http://www.w3.org/Graphics/SVG/1.1/DTD/svg11.dtd">
<svg version="1.1" id="Capa_1" xmlns="http://www.w3.org/2000/svg" xmlns:xlink="http://www.w3.org/1999/xlink" x="0px" y="0px"
	 width="230.822px" height="230.822px" viewBox="0 0 230.822 230.822" style="enable-background:new 0 0 230.822 230.822;"
	 xml:space="preserve">
<g>
	<g>
		<path d="M88.922,79.347c-0.708,0-1.415-0.212-2.026-0.644l0,0c-0.055-0.039-5.582-3.858-14.062-4.627
			c-6.581-0.609-8.579,2.853-8.761,3.224c-0.484,0.979-1.413,1.722-2.481,1.936c-1.08,0.221-2.204-0.043-3.019-0.762L36.672,59.2
			c-0.727-0.64-1.155-1.548-1.188-2.519c-0.031-0.963,0.341-1.903,1.02-2.587c0.084-0.083,8.446-8.571,15.08-22.671
			C57.195,19.505,84.842,1.83,111.549,1.83c13.391,0,24.849,4.271,34.058,12.7c1.061,0.97,1.42,2.495,0.903,3.839
			c-0.514,1.347-1.804,2.24-3.244,2.25l-4.381,0.035c-0.301-0.011-0.732-0.035-1.464-0.035c-5.568,0-23.983,1.241-33.151,16.762
			l8.814,17.623c0.698,1.398,0.385,3.094-0.767,4.153L91.292,78.429C90.621,79.035,89.774,79.347,88.922,79.347z M71.316,66.994
			c0.679,0,1.398,0.033,2.151,0.1c6.851,0.623,12.107,2.869,14.999,4.407l17.161-15.729l-8.456-16.909
			c-0.505-1.003-0.495-2.187,0.024-3.183c8.817-16.953,25.976-20.962,35.449-21.838c-6.188-3.325-13.247-5.003-21.102-5.003
			c-24.439,0-49.397,16.585-53.622,25.57c-4.959,10.537-10.735,18.086-13.962,21.873l16.478,14.501
			C62.699,68.772,66.243,66.994,71.316,66.994z"/>
	</g>
	<g>
		<path d="M43.366,102.104c-0.826,0-1.636-0.294-2.271-0.833L17.441,81.121c-0.715-0.614-1.157-1.484-1.224-2.418
			c-0.07-0.939,0.243-1.865,0.866-2.566l13.141-14.894c0.618-0.696,1.482-1.121,2.411-1.181c0.936-0.051,1.839,0.257,2.538,0.873
			l22.778,20.149c1.415,1.247,1.584,3.396,0.381,4.854l-12.265,14.893c-0.595,0.726-1.458,1.181-2.397,1.261
			C43.573,102.101,43.469,102.104,43.366,102.104z M24.698,78.092L42.924,93.62l7.851-9.532L33.158,68.505L24.698,78.092z"/>
	</g>
	<g>
		<path d="M201.832,198.426L201.832,198.426c-1.943,0-3.672-0.425-5.137-1.273c-0.297-0.171-0.564-0.387-0.804-0.64L92.275,85.75
			c-0.652-0.693-0.987-1.622-0.943-2.572c0.05-0.95,0.481-1.836,1.2-2.464l24.092-21.026c1.372-1.194,3.439-1.138,4.747,0.133
			l47.968,46.803l59.888,57.453c0.339,0.325,0.605,0.712,0.791,1.144c2.556,5.924-1.109,15.294-9.127,23.315
			C214.785,194.634,207.482,198.426,201.832,198.426z M200.56,191.239c2.471,0.835,9.086-1.376,15.372-7.666
			c6.105-6.104,8.344-12.344,7.81-15.051l-59.272-56.862l-45.677-44.563L99.873,83.612L200.56,191.239z"/>
	</g>
	<g>
		<path d="M23.216,158.906c-0.7,0-1.398-0.208-2-0.622l-10.075-7.009c-1.254-0.876-1.802-2.464-1.343-3.929
			c0.46-1.458,1.815-2.457,3.343-2.457h20.15c1.531,0,2.885,0.999,3.343,2.457c0.458,1.465-0.083,3.053-1.341,3.929l-10.075,7.009
			C24.614,158.698,23.918,158.906,23.216,158.906z"/>
	</g>
	<g>
		<path d="M23.216,209.28c-1.937,0-3.504-1.563-3.504-3.504v-50.374c0-1.937,1.567-3.504,3.504-3.504
			c1.938,0,3.504,1.567,3.504,3.504v50.374C26.721,207.717,25.155,209.28,23.216,209.28z"/>
	</g>
	<g>
		<path d="M212.01,228.992H3.504c-1.937,0-3.504-1.563-3.504-3.504v-19.712c0-1.937,1.567-3.504,3.504-3.504H212.01
			c1.938,0,3.504,1.567,3.504,3.504v19.712C215.514,227.429,213.947,228.992,212.01,228.992z M7.009,221.983h201.497V209.28H7.009
			V221.983z"/>
	</g>
</g>
<g>
</g>
<g>
</g>
<g>
</g>
<g>
</g>
<g>
</g>
<g>
</g>
<g>
</g>
<g>
</g>
<g>
</g>
<g>
</g>
<g>
</g>
<g>
</g>
<g>
</g>
<g>
</g>
<g>
</g>
</svg>
