<?xml version="1.0"?>
<svg xmlns="http://www.w3.org/2000/svg" viewBox="0 0 64 64" width="512" height="512"><g id="Outline"><g><path d="M26.59,48.085l-6.426-1.071a1.015,1.015,0,0,0-.264-.009L15,47.5V42h1a7.009,7.009,0,0,0,7-7V33a1,1,0,0,0-2,0v1H20a6.975,6.975,0,0,0-5.153,2.279Q14.73,34.634,14.508,33H16a5.006,5.006,0,0,0,5-5V26a1,1,0,0,0-2,0v1H18a5,5,0,0,0-4.142,2.2c-.1-.455-.174-.913-.28-1.365l-1.356-5.765a4.783,4.783,0,0,0-9.41.568,1.013,1.013,0,0,0,0,.156l.159,3.478-.457.935a5.006,5.006,0,0,0,2.3,6.687,1,1,0,0,0,.763.048,1,1,0,0,0,.575-.507l.878-1.8A5,5,0,0,0,4.913,25.07l-.1-2.28a2.782,2.782,0,0,1,5.465-.257L11.631,28.3A51.7,51.7,0,0,1,12.9,36.941,4.955,4.955,0,0,0,10,36H9V35a1,1,0,0,0-2,0v2a5.006,5.006,0,0,0,5,5h1v5.7L9.921,48h0l-.019,0a1.009,1.009,0,0,0-.174.033l-7,2A1,1,0,0,0,3,52a1.036,1.036,0,0,0,.275-.038l5.178-1.48-1.4,4.2-1,3a1,1,0,1,0,1.9.632l.586-1.758,1.911,1.274a1,1,0,1,0,1.11-1.664L9.19,54.592l1.554-4.661,8.055-.806-.75,4.5-1.881,2.821a1,1,0,0,0,1,1.541l5.493-.915,1.636,1.636a1,1,0,0,0,1.414-1.414l-1.49-1.49L25.9,52.447a1,1,0,0,0-1.79-.894L22.333,55.1l-3.221.536.72-1.079a1,1,0,0,0,.154-.391l.836-5.014,5.44.908a1,1,0,0,0,.328-1.973ZM20,36h.9A5.008,5.008,0,0,1,16,40h-.9A5.008,5.008,0,0,1,20,36Zm-2-7h.829A3.006,3.006,0,0,1,16,31h-.829A3.006,3.006,0,0,1,18,29ZM5.224,30.764l-.364.744a3,3,0,0,1-.554-3.419l.086-.177a.973.973,0,0,0,.43-.375,2.93,2.93,0,0,1,.4,3.227ZM12,40a3.006,3.006,0,0,1-2.829-2H10a3.006,3.006,0,0,1,2.829,2Z"/><path d="M56.666,42.709a1,1,0,0,0,.668,1.885A7.009,7.009,0,0,0,62,38V36a1,1,0,0,0-2,0v1H59a6.973,6.973,0,0,0-5,2.111V36h1a5.006,5.006,0,0,0,5-5V29a1,1,0,0,0-2,0v1H57a4.948,4.948,0,0,0-3,1.026V23.59a5.179,5.179,0,0,0-2.909-4.662,3.631,3.631,0,0,0-3.165,0,3.955,3.955,0,0,0-2.143,2.641l-.757,3.206a1,1,0,1,0,1.948.458l.755-3.2a1.942,1.942,0,0,1,1.051-1.293,1.654,1.654,0,0,1,1.456,0A3.174,3.174,0,0,1,52,23.59v7.436A4.948,4.948,0,0,0,49,30H48V29a1,1,0,0,0-2,0v2a5.006,5.006,0,0,0,5,5h1v4.026A4.948,4.948,0,0,0,49,39H48V38a1,1,0,0,0-2,0v2a5.006,5.006,0,0,0,5,5h1v4.691l-9.737-2.656a.989.989,0,0,0-.459-.015L35,48.38V44h1a7.009,7.009,0,0,0,7-7V35a1,1,0,0,0-2,0v1H40a6.973,6.973,0,0,0-5,2.111V35h1a7.009,7.009,0,0,0,7-7V26a1,1,0,0,0-2,0v1H40a6.973,6.973,0,0,0-5,2.111V26h1a7.009,7.009,0,0,0,7-7V17a1,1,0,0,0-2,0v1H40a6.973,6.973,0,0,0-5,2.111V15a1,1,0,0,0-2,0v6.026A4.948,4.948,0,0,0,30,20H29V19a1,1,0,0,0-2,0v2a5.006,5.006,0,0,0,5,5h1v3.111A6.973,6.973,0,0,0,28,27H27V26a1,1,0,0,0-2,0v2a7.009,7.009,0,0,0,4.666,6.594,1,1,0,0,0,.668-1.885A5.01,5.01,0,0,1,27.1,29H28a5.006,5.006,0,0,1,5,5v4.111A6.973,6.973,0,0,0,28,36H27V35a1,1,0,0,0-2,0v2a7.009,7.009,0,0,0,7,7h1v4.78l-1.017.2-1.819-.3a1,1,0,1,0-.328,1.972l1.5.25,1.4,2.8L29.4,56.2a1,1,0,1,0,1.2,1.6l4-3c.029-.022.044-.055.071-.08a.974.974,0,0,0,.136-.152,1.084,1.084,0,0,0,.154-.341,1.087,1.087,0,0,0,.024-.188.977.977,0,0,0-.009-.187.937.937,0,0,0-.053-.193.973.973,0,0,0-.028-.106L33.48,50.724l7.556-1.511a.95.95,0,0,0,.107.3L43.412,53.3,39.8,54.02l-.006,0c-.011,0-.02.01-.031.013a.975.975,0,0,0-.348.157c-.006,0-.013,0-.019.008l-4,3a1,1,0,0,0-.354,1.1l.939,3a1,1,0,0,0,1.909-.6l-.728-2.325,2.476-1.857,2.463,4.928a1,1,0,0,0,1.79-.894L41.48,55.724,45.2,54.98c.009,0,.015-.007.023-.009a.976.976,0,0,0,.3-.114c.008-.005.012-.013.021-.019a1.018,1.018,0,0,0,.161-.147,1,1,0,0,0,.121-.122A1.072,1.072,0,0,0,45.9,54.4a.939.939,0,0,0,.075-.18.9.9,0,0,0,.009-.165.987.987,0,0,0,0-.224.261.261,0,0,0,0-.028,1.014,1.014,0,0,0-.067-.163.91.91,0,0,0-.056-.156l-2.436-4.061L51.4,51.6l-1.23,1.845a1,1,0,0,0,.277,1.387l1.418.945-3.234,1.294a1,1,0,0,0-.161,1.776l4.77,3A1,1,0,0,0,54.3,60.153L51.2,58.2l3-1.2H57a1,1,0,0,0,0-2H54.3l-1.916-1.277,1.231-1.847,7.624-1.906a1,1,0,1,0-.484-1.94L54,49.72V44a5.006,5.006,0,0,1,5-5h.9A5.01,5.01,0,0,1,56.666,42.709ZM40,38h.9A5.008,5.008,0,0,1,36,42h-.9A5.008,5.008,0,0,1,40,38Zm0-9h.9A5.008,5.008,0,0,1,36,33h-.9A5.008,5.008,0,0,1,40,29Zm0-9h.9A5.008,5.008,0,0,1,36,24h-.9A5.008,5.008,0,0,1,40,20ZM32,42a5.008,5.008,0,0,1-4.9-4H28a5.008,5.008,0,0,1,4.9,4Zm0-18a3.006,3.006,0,0,1-2.829-2H30a3.006,3.006,0,0,1,2.829,2Zm25,8h.829A3.006,3.006,0,0,1,55,34h-.829A3.006,3.006,0,0,1,57,32Zm-6,2a3.006,3.006,0,0,1-2.829-2H49a3.006,3.006,0,0,1,2.829,2Zm0,9a3.006,3.006,0,0,1-2.829-2H49a3.006,3.006,0,0,1,2.829,2Z"/><path d="M13,10A4,4,0,1,0,9,6,4,4,0,0,0,13,10Zm0-6a2,2,0,1,1-2,2A2,2,0,0,1,13,4Z"/><path d="M11,13v3a1,1,0,0,0,2,0V13a1,1,0,0,0-2,0Z"/><path d="M15.629,12.071a1,1,0,0,0-.558,1.3l2,5A1,1,0,0,0,18,19a.986.986,0,0,0,.371-.071,1,1,0,0,0,.558-1.3l-2-5A1,1,0,0,0,15.629,12.071Z"/><path d="M19.105,6.553A1,1,0,0,0,19.553,7.9l8,4a1,1,0,0,0,.894-1.79l-8-4A1,1,0,0,0,19.105,6.553Z"/><path d="M20,4h6a1,1,0,0,0,0-2H20a1,1,0,0,0,0,2Z"/><path d="M23.293,16.707a1,1,0,0,0,1.414-1.414l-5-5a1,1,0,0,0-1.414,1.414Z"/><path d="M7.832,8.445a1,1,0,0,0-1.387-.277l-3,2a1,1,0,0,0,1.11,1.664l3-2A1,1,0,0,0,7.832,8.445Z"/><path d="M4,5H7A1,1,0,0,0,7,3H4A1,1,0,0,0,4,5Z"/><path d="M7.293,12.293l-2,2a1,1,0,1,0,1.414,1.414l2-2a1,1,0,0,0-1.414-1.414Z"/></g></g></svg>
