<svg id="Capa_1" enable-background="new 0 0 512.002 512.002" height="512" viewBox="0 0 512.002 512.002" width="512" xmlns="http://www.w3.org/2000/svg"><g><g><path d="m21.17 398.693c6.47 10.623 20.298 13.985 30.92 7.512l12.594-7.671v98.468h-14.405c-4.143 0-7.5 3.357-7.5 7.5s3.357 7.5 7.5 7.5h411.444c4.143 0 7.5-3.357 7.5-7.5s-3.357-7.5-7.5-7.5h-14.405v-98.468l12.593 7.67c10.611 6.468 24.454 3.111 30.921-7.511 6.454-10.596 3.084-24.466-7.512-30.92l-132.819-80.898v-24.625c0-4.143-3.357-7.5-7.5-7.5s-7.5 3.357-7.5 7.5v234.752h-21v-95.01c0-32.257-26.243-58.5-58.5-58.5s-58.5 26.243-58.5 58.5v95.01h-21c0-3.214 0-289.623 0-297.225l79.5-48.422 79.5 48.422v27.473c0 4.143 3.357 7.5 7.5 7.5s7.5-3.357 7.5-7.5v-18.336l8.979 5.469c10.644 6.483 24.461 3.095 30.921-7.512 6.47-10.62 3.111-24.451-7.512-30.92l-45.23-27.549c-3.536-2.153-8.151-1.034-10.307 2.504-2.155 3.537-1.034 8.152 2.504 10.307l45.231 27.549c3.54 2.157 4.659 6.766 2.503 10.307-2.155 3.538-6.766 4.662-10.307 2.504l-104.228-63.483c-4.354-2.65-9.759-2.65-14.11 0-10.279 6.26-94.114 57.324-104.228 63.483-3.527 2.147-8.142 1.051-10.307-2.504-2.157-3.542-1.037-8.15 2.504-10.307l115.186-70.158c2.401-1.462 5.4-1.463 7.803 0l39.95 24.333c3.538 2.155 8.153 1.035 10.307-2.504 2.155-3.537 1.034-8.152-2.504-10.307l-39.95-24.333c-1.348-.821-2.757-1.488-4.204-2.002v-47.872h30.286c4.143 0 7.5-3.357 7.5-7.5s-3.357-7.5-7.5-7.5h-30.286v-33.419c0-4.143-3.357-7.5-7.5-7.5s-7.5 3.357-7.5 7.5v33.419h-30.286c-4.143 0-7.5 3.357-7.5 7.5s3.357 7.5 7.5 7.5h30.286v47.872c-1.447.514-2.856 1.182-4.204 2.003l-115.184 70.157c-10.621 6.468-13.982 20.298-7.513 30.919 6.479 10.64 20.319 13.97 30.921 7.513l8.979-5.469v77.962l-132.819 80.897c-10.596 6.455-13.966 20.325-7.512 30.92zm394.66 98.309v-117.646l16.488 10.043v107.603zm59.688-116.418c3.54 2.156 4.661 6.765 2.503 10.308-2.153 3.538-6.766 4.661-10.306 2.503l-117.214-71.394v-17.563zm-125.017-41.02c2.402 1.463 47.404 28.874 50.329 30.656v126.782h-50.329zm-51 62.428v95.01h-36v-137.849c20.423 3.566 36 21.411 36 42.839zm-87 0c0-21.251 15.375-39.24 36-42.84v137.849h-36zm-132.817 95.01v-107.604l16.488-10.043v117.646h-16.488zm31.488 0v-126.783c5.266-3.207 44.496-27.102 50.329-30.655v157.438zm-74.688-116.418 125.017-76.146v17.563c-12.774 7.781-104.694 63.768-117.215 71.395-3.551 2.16-8.152 1.028-10.306-2.505-2.156-3.541-1.036-8.151 2.504-10.307z"/><path d="m223.37 235.301c0 17.993 14.638 32.631 32.631 32.631s32.631-14.638 32.631-32.631-14.638-32.631-32.631-32.631-32.631 14.638-32.631 32.631zm50.262 0c0 9.722-7.909 17.631-17.631 17.631s-17.631-7.909-17.631-17.631 7.909-17.631 17.631-17.631 17.631 7.909 17.631 17.631z"/></g></g></svg>