<?xml version="1.0" encoding="iso-8859-1"?>
<!-- Generator: Adobe Illustrator 19.0.0, SVG Export Plug-In . SVG Version: 6.00 Build 0)  -->
<svg version="1.1" id="Capa_1" xmlns="http://www.w3.org/2000/svg" xmlns:xlink="http://www.w3.org/1999/xlink" x="0px" y="0px"
	 viewBox="0 0 512 512" style="enable-background:new 0 0 512 512;" xml:space="preserve">
<g>
	<g>
		<path d="M460.049,111.809c-4.194,0-7.594,3.4-7.594,7.594v19.744c0,4.194,3.4,7.594,7.594,7.594c4.194,0,7.594-3.4,7.594-7.594
			v-19.744C467.643,115.209,464.243,111.809,460.049,111.809z"/>
	</g>
</g>
<g>
	<g>
		<path d="M460.049,164.965c-4.194,0-7.594,3.4-7.594,7.594v19.744c0,4.194,3.4,7.594,7.594,7.594c4.194,0,7.594-3.4,7.594-7.594
			V172.56C467.643,168.366,464.243,164.965,460.049,164.965z"/>
	</g>
</g>
<g>
	<g>
		<path d="M496.5,148.259h-19.744c-4.194,0-7.594,3.4-7.594,7.594c0,4.194,3.4,7.594,7.594,7.594H496.5
			c4.194,0,7.594-3.4,7.594-7.594C504.094,151.659,500.694,148.259,496.5,148.259z"/>
	</g>
</g>
<g>
	<g>
		<path d="M443.343,148.259h-19.744c-4.194,0-7.594,3.4-7.594,7.594c0,4.194,3.4,7.594,7.594,7.594h19.744
			c4.194,0,7.594-3.4,7.594-7.594C450.937,151.659,447.537,148.259,443.343,148.259z"/>
	</g>
</g>
<g>
	<g>
		<path d="M52.51,1.84c-4.194,0-7.594,3.4-7.594,7.594v19.744c0,4.194,3.4,7.594,7.594,7.594s7.594-3.4,7.594-7.594V9.434
			C60.104,5.24,56.704,1.84,52.51,1.84z"/>
	</g>
</g>
<g>
	<g>
		<path d="M52.51,54.997c-4.194,0-7.594,3.4-7.594,7.594v19.744c0,4.195,3.4,7.594,7.594,7.594s7.594-3.4,7.594-7.594V62.591
			C60.104,58.397,56.704,54.997,52.51,54.997z"/>
	</g>
</g>
<g>
	<g>
		<path d="M88.96,38.29H69.216c-4.194,0-7.594,3.4-7.594,7.594c0,4.194,3.4,7.594,7.594,7.594H88.96c4.194,0,7.594-3.4,7.594-7.594
			C96.554,41.691,93.154,38.29,88.96,38.29z"/>
	</g>
</g>
<g>
	<g>
		<path d="M35.803,38.29H16.059c-4.194,0-7.594,3.4-7.594,7.594c0,4.194,3.4,7.594,7.594,7.594h19.744
			c4.194,0,7.594-3.4,7.594-7.594C43.398,41.691,39.997,38.29,35.803,38.29z"/>
	</g>
</g>
<g>
	<g>
		<path d="M267.826,151.548c-24.181-1.427-49.617-1.581-73.987-0.456c-4.19,0.193-7.429,3.747-7.236,7.936
			c0.193,4.19,3.75,7.429,7.936,7.236c23.841-1.102,48.739-0.95,72.392,0.445c0.153,0.01,0.304,0.014,0.454,0.014
			c3.99,0,7.336-3.113,7.574-7.148C275.206,155.389,272.013,151.794,267.826,151.548z"/>
	</g>
</g>
<g>
	<g>
		<path d="M374.096,167.922c-4.04-1.122-8.227,1.24-9.351,5.281c-1.124,4.041,1.24,8.228,5.281,9.352
			c41.811,11.63,67.783,28.388,67.783,43.733c0,14.231-21.976,29.587-58.785,41.08c-40.632,12.686-94.8,19.674-152.525,19.674
			s-111.893-6.987-152.525-19.674c-36.81-11.492-58.786-26.849-58.786-41.079c0-11.728,15.122-21.859,24.136-26.855
			c17.108-9.483,41.959-17.614,71.862-23.515c4.114-0.812,6.792-4.806,5.98-8.921c-0.812-4.115-4.813-6.793-8.921-5.98
			C39.454,174.591,0,198.381,0,226.288c0,15.463,12.049,37.656,69.446,55.579c42.059,13.132,97.834,20.364,157.052,20.364
			s114.993-7.233,157.052-20.364c57.398-17.921,69.446-40.116,69.446-55.579C452.997,202.804,424.976,182.076,374.096,167.922z"/>
	</g>
</g>
<g>
	<g>
		<path d="M348.682,213.049l-0.236-0.056c-4.083-0.967-8.173,1.561-9.137,5.644c-0.617,2.608,0.192,5.22,1.922,7.018
			c-32.808,7.33-73.359,11.352-114.732,11.352c-41.37-0.001-81.923-4.023-114.732-11.353c1.727-1.795,2.536-4.403,1.925-7.008
			c-0.959-4.083-5.048-6.614-9.13-5.656l-0.254,0.06c-6.259,1.478-10.464,6.798-10.464,13.237c0,6.439,4.205,11.759,10.463,13.237
			l0.252,0.06c34.543,8.132,77.849,12.612,121.94,12.612c44.09,0,87.397-4.479,121.947-12.613l0.245-0.058
			c6.259-1.478,10.463-6.797,10.463-13.237C359.154,219.85,354.949,214.531,348.682,213.049z"/>
	</g>
</g>
<g>
	<g>
		<path d="M358.768,292.917c-4.194,0-7.594,3.4-7.594,7.594V462.89c0,13.743-48.569,33.704-124.676,33.704
			s-124.676-19.962-124.676-33.704v-31.526c0-4.194-3.4-7.594-7.594-7.594c-4.194,0-7.594,3.4-7.594,7.594v31.525
			c0,14.844,15.24,27.45,44.072,36.451c25.695,8.023,59.715,12.441,95.793,12.441c36.078,0,70.098-4.419,95.793-12.441
			c28.832-9.002,44.072-21.607,44.072-36.451V300.512C366.363,296.318,362.962,292.917,358.768,292.917z"/>
	</g>
</g>
<g>
	<g>
		<path d="M94.227,292.917c-4.194,0-7.594,3.4-7.594,7.594v105.537c0,4.194,3.4,7.594,7.594,7.594c4.194,0,7.594-3.4,7.594-7.594
			V300.512C101.822,296.318,98.421,292.917,94.227,292.917z"/>
	</g>
</g>
<g>
	<g>
		<path d="M510.635,51.049l-17.374-24.916c-2.4-3.441-7.133-4.284-10.573-1.886L250.962,185.815
			c-1.652,1.152-2.779,2.913-3.133,4.896c-0.354,1.983,0.094,4.025,1.247,5.676l17.374,24.916c1.476,2.117,3.837,3.251,6.236,3.251
			c1.5,0,3.014-0.443,4.337-1.365L508.75,61.622c1.653-1.152,2.78-2.913,3.133-4.896C512.236,54.743,511.787,52.7,510.635,51.049z
			 M274.565,206.389l-8.687-12.458L485.146,41.049l8.687,12.458L274.565,206.389z"/>
	</g>
</g>
<g>
	<g>
		<path d="M351.099,56.535l-15.99-3.242c-12.797-2.594-22.741-12.539-25.335-25.335l-3.242-15.99
			c-1.402-6.917-7.31-11.748-14.367-11.748c-7.057,0-12.966,4.831-14.368,11.748l-3.242,15.99
			c-2.594,12.797-12.539,22.741-25.335,25.335l-15.99,3.242c-6.917,1.402-11.748,7.312-11.748,14.368
			c0,7.058,4.831,12.965,11.748,14.367l15.99,3.242c12.797,2.594,22.741,12.539,25.335,25.335l3.242,15.99
			c1.402,6.917,7.312,11.748,14.368,11.748c7.058,0,12.966-4.831,14.367-11.748l3.242-15.99
			c2.594-12.797,12.539-22.741,25.335-25.335l15.99-3.242c6.917-1.402,11.748-7.31,11.748-14.367
			C362.847,63.846,358.016,57.937,351.099,56.535z M332.092,73.627c-18.79,3.81-33.393,18.414-37.204,37.204l-2.726,13.435
			l-2.723-13.435c-3.81-18.79-18.414-33.393-37.204-37.204l-13.435-2.726l13.435-2.723c18.79-3.81,33.393-18.414,37.204-37.204
			l2.725-13.435l2.724,13.435c3.81,18.79,18.414,33.393,37.204,37.204l13.435,2.725L332.092,73.627z"/>
	</g>
</g>
<g>
	<g>
		<path d="M219.29,105.046l-19.364-3.926c-16.128-3.27-28.662-15.803-31.931-31.931l-3.926-19.364
			c-1.545-7.62-8.054-12.942-15.828-12.942c-7.775,0-14.284,5.322-15.829,12.942l-3.926,19.364
			c-3.27,16.128-15.803,28.662-31.931,31.931l-19.365,3.926c-7.62,1.545-12.942,8.055-12.942,15.829s5.321,14.284,12.942,15.829
			l19.365,3.926c16.128,3.27,28.662,15.804,31.931,31.932l3.926,19.364c1.545,7.62,8.054,12.942,15.829,12.942
			c7.774,0,14.283-5.321,15.828-12.942l3.926-19.364c3.27-16.128,15.803-28.662,31.931-31.932l19.364-3.926
			c7.62-1.545,12.942-8.054,12.942-15.829S226.91,106.591,219.29,105.046z M216.273,121.819l-19.364,3.926
			c-22.123,4.486-39.315,21.678-43.8,43.8l-3.926,19.364c-0.073,0.361-0.156,0.771-0.943,0.771c-0.787,0-0.87-0.409-0.944-0.771
			l-3.926-19.364c-4.485-22.122-21.677-39.314-43.8-43.8l-19.365-3.926c-0.361-0.073-0.771-0.156-0.771-0.944
			s0.409-0.87,0.771-0.944l19.365-3.926c22.122-4.486,39.315-21.677,43.8-43.8l3.926-19.364c0.073-0.362,0.156-0.772,0.944-0.772
			c0.787,0,0.87,0.41,0.943,0.772l3.926,19.364c4.486,22.122,21.677,39.314,43.8,43.799l19.364,3.926
			c0.362,0.073,0.772,0.156,0.772,0.944S216.634,121.745,216.273,121.819z"/>
	</g>
</g>
<g>
</g>
<g>
</g>
<g>
</g>
<g>
</g>
<g>
</g>
<g>
</g>
<g>
</g>
<g>
</g>
<g>
</g>
<g>
</g>
<g>
</g>
<g>
</g>
<g>
</g>
<g>
</g>
<g>
</g>
</svg>
