<svg height="512" viewBox="0 0 128 128" width="512" xmlns="http://www.w3.org/2000/svg"><path d="m102.5 100.75h-56.85l11.761-8.387a1.744 1.744 0 0 0 .711-1.141l1.613-9.843 2.932-5.058 1.267.734a1.75 1.75 0 0 0 2.446-.737l18.243-36.818.953.522-7.737 17.778a1.749 1.749 0 0 0 .906 2.3 1.727 1.727 0 0 0 .7.146 1.749 1.749 0 0 0 1.603-1.046l8.375-19.25a1.749 1.749 0 0 0 -.765-2.233l-2.48-1.358 1.61-3.25a6.4 6.4 0 0 0 -11.046-6.4l-26.858 40.046a1.749 1.749 0 0 0 .575 2.488l1.267.735-2.932 5.057-7.74 6.291a1.748 1.748 0 0 0 -.638 1.185l-1.816 18.239h-13.1a1.75 1.75 0 0 0 0 3.5h77a1.75 1.75 0 0 0 0-3.5zm-22.852-72.1a2.9 2.9 0 0 1 5 2.9l-20.575 41.54-10.242-5.938zm-20.008 45.915-2.216 3.822-4.886-2.832 2.216-3.822zm-9.327 3.746 5.826 3.376-1.353 8.25-9.032 6.44 4.84-8.349a1.75 1.75 0 0 0 -3.028-1.756l-4.84 8.351 1.1-11.04z"/></svg>