<?xml version="1.0" encoding="iso-8859-1"?>
<!-- Generator: Adobe Illustrator 19.0.0, SVG Export Plug-In . SVG Version: 6.00 Build 0)  -->
<svg version="1.1" id="Capa_1" xmlns="http://www.w3.org/2000/svg" xmlns:xlink="http://www.w3.org/1999/xlink" x="0px" y="0px"
	 viewBox="0 0 496 496" style="enable-background:new 0 0 496 496;" xml:space="preserve">
<g>
	<g>
		<path d="M216,32c-39.704,0-72,32.296-72,72v20.672c0,20,2.784,39.984,8,59.304l0.008,0.024
			c3.944,14.592,9.24,28.824,15.992,42.336C177.152,244.632,195.536,256,216,256s38.848-11.368,48-29.656
			c6.752-13.512,12.048-27.744,15.992-42.344H280v-0.024c5.216-19.328,8-39.312,8-59.304V104C288,64.296,255.704,32,216,32z
			 M208,239.064c-11.024-2.376-20.496-9.488-25.688-19.888c-0.52-1.048-0.968-2.128-1.472-3.176H208V239.064z M208,200h-34.024
			c-2-5.264-3.84-10.592-5.416-16H208V200z M208,168h-43.392c-1.112-5.296-2.048-10.632-2.752-16H208V168z M208,136h-47.664
			c-0.208-3.776-0.336-7.552-0.336-11.328V120h48V136z M208,104h-48c0-5.56,0.84-10.928,2.36-16H208V104z M208,72h-37.888
			c8.68-12.408,22.248-21.104,37.888-23.36V72z M224,48.64c15.64,2.256,29.208,10.952,37.888,23.36H224V48.64z M249.688,219.184
			c-5.192,10.392-14.664,17.512-25.688,19.88V216h27.168C250.664,217.056,250.216,218.144,249.688,219.184z M258.024,200H224v-16
			h39.44C261.864,189.408,260.024,194.736,258.024,200z M267.392,168H224v-16h46.144C269.44,157.368,268.504,162.704,267.392,168z
			 M272,124.672c0,3.776-0.128,7.552-0.336,11.328H224v-16h48V124.672z M224,104V88h45.64c1.52,5.072,2.36,10.44,2.36,16H224z"/>
	</g>
</g>
<g>
	<g>
		<path d="M481.064,352l6.968-55.752L472.12,41.656C476.928,37.264,480,31.008,480,24c0-13.232-10.768-24-24-24s-24,10.768-24,24
			c0,7.008,3.072,13.264,7.88,17.656l-14.664,234.608c-3.184-2.624-7.2-4.264-11.64-4.264H390.48c-35.728,0-69.32-15.2-93.088-41.64
			C312.16,197.216,320,160.936,320,124.672V104C320,46.656,273.344,0,216,0S112,46.656,112,104v20.672
			c0,36.272,7.84,72.544,22.608,105.688C110.832,256.8,77.248,272,41.512,272H18.424C8.264,272,0,280.264,0,290.424
			c0,6.176,3.072,11.904,8.2,15.328c12.464,8.312,25.816,14.864,39.712,19.8C37.688,338.216,32,354.016,32,370.688V496h368V370.688
			c0-16.672-5.688-32.472-15.92-45.136c13.896-4.936,27.248-11.496,39.704-19.8c0.456-0.304,0.808-0.72,1.232-1.064l5.92,47.312H416
			v16h16v104c0,13.232,10.768,24,24,24s24-10.768,24-24V368h16v-16H481.064z M128,124.672V104c0-48.52,39.48-88,88-88
			s88,39.48,88,88v20.672c0,37.576-8.88,75.2-25.688,108.824C266.44,257.24,242.56,272,216,272s-50.44-14.76-62.312-38.504
			C136.88,199.872,128,162.248,128,124.672z M216,313.328L240.448,328L216,342.672L191.552,328L216,313.328z M203.248,287.024
			C207.432,287.64,211.68,288,216,288s8.568-0.36,12.752-0.984L216,294.672L203.248,287.024z M231.552,304L248,294.128V296v17.872
			L231.552,304z M248,342.128V352h-16.448L248,342.128z M184,313.872V296v-1.872L200.448,304L184,313.872z M200.456,352H184v-9.872
			L200.456,352z M256,368c10.416,0,19.216,6.712,22.528,16H153.472c3.312-9.288,12.112-16,22.528-16H256z M17.08,292.44
			c-0.68-0.456-1.08-1.208-1.08-2.016c0-1.336,1.088-2.424,2.424-2.424H41.52c38.216,0,74.264-15.416,100.768-42.424
			c6.56,11.224,15.344,20.576,25.72,27.608V296c0,13.232-10.768,24-24,24H108.12C75.616,320,44.136,310.472,17.08,292.44z M136,392
			v88h-16V352h-16v128H48V370.688c0-15.24,6.112-29.528,16.888-40.032C78.936,334.128,93.416,336,108.112,336H144
			c9.04,0,17.296-3.128,24-8.208v25.016C149.768,356.528,136,372.68,136,392z M280,480H152v-16h128V480z M280,448H152v-48h128V448z
			 M384,480h-56V352h-16v128h-16v-88c0-19.312-13.768-35.472-32-39.192v-25.016c6.704,5.08,14.96,8.208,24,8.208h35.888
			c14.696,0,29.168-1.872,43.224-5.344C377.888,341.16,384,355.448,384,370.688V480z M414.92,292.44
			C387.872,310.472,356.4,320,323.888,320H288c-13.232,0-24-10.768-24-24v-22.816c10.376-7.04,19.16-16.392,25.72-27.608
			C316.224,272.584,352.264,288,390.488,288h23.096c1.328,0,2.416,1.088,2.416,2.424C416,291.232,415.6,291.984,414.92,292.44z
			 M456,16c4.416,0,8,3.584,8,8s-3.584,8-8,8c-4.416,0-8-3.584-8-8S451.584,16,456,16z M462.488,144H449.52l6-96.048
			c0.16,0,0.312,0.048,0.48,0.048c0.168,0,0.32-0.048,0.48-0.048L462.488,144z M464,472c0,4.416-3.584,8-8,8c-4.416,0-8-3.584-8-8
			V368h16V472z M464.936,352h-17.872l-6-48h29.872L464.936,352z M440.512,288l8-128h14.968l8,128H440.512z"/>
	</g>
</g>
<g>
	<g>
		<rect x="168" y="416" width="16" height="16"/>
	</g>
</g>
<g>
	<g>
		<rect x="208" y="416" width="16" height="16"/>
	</g>
</g>
<g>
	<g>
		<rect x="248" y="416" width="16" height="16"/>
	</g>
</g>
<g>
</g>
<g>
</g>
<g>
</g>
<g>
</g>
<g>
</g>
<g>
</g>
<g>
</g>
<g>
</g>
<g>
</g>
<g>
</g>
<g>
</g>
<g>
</g>
<g>
</g>
<g>
</g>
<g>
</g>
</svg>
