<svg viewBox="0 0 512 512.001" xmlns="http://www.w3.org/2000/svg"><path d="m290.570312 249.238281c1.859376-1.859375 2.929688-4.4375 2.929688-7.066406 0-2.632813-1.070312-5.210937-2.929688-7.070313-1.859374-1.863281-4.441406-2.929687-7.070312-2.929687s-5.210938 1.066406-7.070312 2.929687c-1.859376 1.859376-2.929688 4.4375-2.929688 7.070313 0 2.628906 1.070312 5.207031 2.929688 7.066406 1.863281 1.863281 4.441406 2.933594 7.070312 2.933594s5.210938-1.070313 7.070312-2.933594zm0 0"/><path d="m503.128906 50.820312c-11.695312-11.699218-30.726562-11.699218-42.425781 0l-14.144531 14.140626c0 .003906 0 .003906-.003906.007812l-52.304688 52.304688-13.433594 2.984374c2.238282-5.410156 3.480469-11.328124 3.480469-17.535156 0-25.363281-20.636719-46-46-46s-46 20.636719-46 46c0 13.386719 5.75 25.453125 14.910156 33.867188l-11.890625 2.636718c-.257812.058594-.507812.152344-.761718.226563-1.644532-6.316406-4.929688-12.296875-9.871094-17.238281-14.8125-14.816406-38.921875-14.816406-53.738282 0l-54.441406 54.441406c-.003906.003906-.003906.003906-.007812.007812 0 0 0 0-.003906.003907l-11.875 11.875c-14.816407 14.816406-14.816407 38.925781 0 53.742187 4.515624 4.511719 9.964843 7.75 15.914062 9.53125l-26.609375 26.609375c-9.949219 9.945313-22.304687 17.429688-35.726563 21.640625l-59.59375 18.691406c-2.003906.625-3.734374 1.871094-4.980468 3.519532-.097656.117187-.199219.25-.304688.40625l-51.59375 76.078125c-1.6484372 2.4375-2.144531 5.476562-1.351562 8.3125.796875 2.835937 2.800781 5.175781 5.480468 6.398437l54 24.625c1.320313.601563 2.734376.902344 4.148438.902344 1.640625 0 3.277344-.402344 4.757812-1.203125 2.753907-1.488281 4.652344-4.1875 5.128907-7.285156l8.617187-56.367188 76.507813-23.996093c.765625-.238282 1.5-.570313 2.1875-.988282l16.316406-9.882812c.164063-.097656.324219-.203125.484375-.3125l7.328125-5.039063-.589844 3.558594c-1.875 11.378906-7.183593 21.707031-15.339843 29.863281l-46.285157 46.285156c-.023437.023438-.046875.046876-.070312.070313l-.007813.011719c-.011718.011718-.023437.023437-.039062.039062-.4375.441406-.847656.925782-1.207032 1.460938l-43.324218 64.054687c-1.78125 2.640625-2.203125 5.96875-1.132813 8.964844 1.070313 3 3.503907 5.308594 6.554688 6.21875l57.296875 17.128906c.9375.28125 1.902344.417969 2.863281.417969 1.6875 0 3.363281-.425781 4.863281-1.261719 2.355469-1.3125 4.082032-3.519531 4.789063-6.121093l13.648437-50.359376 53.570313-53.574218c11.128906-11.128906 18.367187-25.222656 20.929687-40.757813l12.242188-74.199219 10.316406-10.320312c3.90625-3.90625 3.90625-10.238281 0-14.144531-3.90625-3.902344-10.238281-3.902344-14.144531.003906l-11.9375 11.9375-71.417969 49.117187-15.035156 9.105469-71.757813 22.507813-5.988281-19.085938 50.054688-15.695312c16.488281-5.171875 31.664062-14.363282 43.882812-26.582032l44.164062-44.164062c.050782-.050781.09375-.105469.144532-.15625l5.453125-5.453125c.175781-.171875.359375-.335937.535156-.511719l66.328125-66.328125c.171875-.171875.328125-.347656.496094-.519531l17.3125-17.316406 98.929687-21.949219c1.859375-.414063 3.5625-1.347656 4.90625-2.695313l47.300781-47.300781 14.144532 14.140625-53.621094 53.621094-43.640625 13.6875c-25.359375 7.953125-48.699219 22.09375-67.496094 40.886719-3.90625 3.90625-3.90625 10.238281 0 14.144531 3.90625 3.902344 10.234375 3.902344 14.140625 0 16.523438-16.523438 37.042969-28.957031 59.339844-35.945312l46.035156-14.4375c1.75-.550782 3.289063-1.566407 4.476563-2.902344l61.972656-61.976563c.003906 0 .003906-.003906.007813-.003906l14.140624-14.144531c11.695313-11.695313 11.695313-30.726563-.003906-42.425782zm-164.832031 25.90625c14.335937 0 26 11.664063 26 26 0 14.335938-11.664063 26-26 26s-26-11.664062-26-26c0-14.335937 11.664063-26 26-26zm-201.214844 412.753907-34.417969-10.289063 28.929688-42.777344 15.632812 15.628907zm69.695313-102.941407-48.386719 48.386719-14.140625-14.140625 39.292969-39.292968c11.128906-11.132813 18.367187-25.226563 20.929687-40.753907l3.71875-22.539062 22.863282-15.722657-8.941407 54.195313c-1.875 11.382813-7.179687 21.710937-15.335937 29.867187zm-150.664063 27.875-31.191406-14.226562 33.324219-49.136719 5.082031 16.195313zm174.402344-263.484374 25.445313 25.441406-32.804688 32.808594-25.445312-25.445313zm40.027344-14.570313c6.933593 6.929687 7.003906 18.148437.246093 25.1875l-.6875.683594-25.441406-25.445313.429688-.425781c7.015625-7.019531 18.4375-7.015625 25.453125 0zm-91.785157 66.328125 4.8125-4.808594 25.441407 25.441406-5.078125 5.074219c-3.363282 3.234375-7.765625 5.019531-12.445313 5.019531-4.808593 0-9.328125-1.871093-12.730469-5.269531-7.015624-7.019531-7.015624-18.4375 0-25.457031zm310.230469-137.722656c3.898438 3.898437 3.898438 10.242187 0 14.140625l-7.070312 7.070312-14.144531-14.140625 7.070312-7.070312c3.898438-3.902344 10.246094-3.902344 14.144531 0zm0 0"/><path d="m458 328.300781c0-5.523437-4.476562-10-10-10s-10 4.476563-10 10c0 11.355469-7.050781 21.089844-17 25.070313v-49.46875c0-5.523438-4.476562-10-10-10s-10 4.476562-10 10v49.46875c-9.949219-3.980469-17-13.714844-17-25.070313 0-5.523437-4.476562-10-10-10s-10 4.476563-10 10c0 22.484375 15.875 41.320313 37 45.917969v36.722656c-9.949219-3.980468-17-13.714844-17-25.070312 0-5.523438-4.476562-10-10-10s-10 4.476562-10 10c0 22.484375 15.875 41.320312 37 45.917968v36.722657c-9.949219-3.984375-17-13.71875-17-25.074219 0-5.519531-4.476562-10-10-10s-10 4.480469-10 10c0 22.484375 15.875 41.324219 37 45.921875v12.640625c0 5.523438 4.476562 10 10 10s10-4.476562 10-10v-12.644531c21.125-4.597657 37-23.433594 37-45.917969 0-5.523438-4.476562-10-10-10s-10 4.476562-10 10c0 11.355469-7.050781 21.089844-17 25.070312v-36.722656c21.125-4.59375 37-23.433594 37-45.917968 0-5.519532-4.476562-10-10-10s-10 4.480468-10 10c0 11.355468-7.050781 21.089843-17 25.074218v-36.722656c21.125-4.597656 37-23.433594 37-45.917969zm0 0"/><path d="m20 149.535156c0-5.519531-4.476562-10-10-10s-10 4.480469-10 10c0 22.484375 15.875 41.324219 37 45.921875v12.644531c0 5.519532 4.476562 10 10 10s10-4.480468 10-10v-12.644531c21.125-4.597656 37-23.433593 37-45.921875 0-5.519531-4.476562-10-10-10s-10 4.480469-10 10c0 11.355469-7.050781 21.089844-17 25.074219v-36.722656c21.125-4.597657 37-23.433594 37-45.917969 0-5.523438-4.476562-10-10-10s-10 4.476562-10 10c0 11.355469-7.050781 21.089844-17 25.070312v-36.722656c21.125-4.59375 37-23.433594 37-45.917968 0-5.523438-4.476562-10-10-10s-10 4.476562-10 10c0 11.355468-7.050781 21.089843-17 25.074218v-49.472656c0-5.523438-4.476562-10-10-10s-10 4.476562-10 10v49.472656c-9.949219-3.984375-17-13.71875-17-25.074218 0-5.519532-4.476562-10-10-10s-10 4.480468-10 10c0 22.484374 15.875 41.324218 37 45.921874v36.71875c-9.949219-3.980468-17-13.714843-17-25.070312 0-5.523438-4.476562-10-10-10s-10 4.476562-10 10c0 22.484375 15.875 41.320312 37 45.917969v36.722656c-9.949219-3.984375-17-13.71875-17-25.074219zm0 0"/><path d="m448 208.171875c-18.746094 0-34 15.253906-34 34 0 18.75 15.253906 34 34 34 18.75 0 34-15.25 34-34 0-18.746094-15.25-34-34-34zm0 48c-7.71875 0-14-6.28125-14-14s6.28125-14 14-14 14 6.28125 14 14-6.28125 14-14 14zm0 0"/><path d="m302.296875 355.867188c-16.542969 0-30 13.460937-30 30 0 16.542968 13.457031 30 30 30s30-13.457032 30-30c0-16.539063-13.457031-30-30-30zm0 40c-5.515625 0-10-4.484376-10-10 0-5.511719 4.484375-10 10-10 5.511719 0 10 4.488281 10 10 0 5.515624-4.488281 10-10 10zm0 0"/><path d="m178.390625 94c16.542969 0 30-13.457031 30-30s-13.457031-30-30-30c-16.539063 0-30 13.457031-30 30s13.460937 30 30 30zm0-40c5.515625 0 10 4.484375 10 10s-4.484375 10-10 10c-5.511719 0-10-4.484375-10-10s4.488281-10 10-10zm0 0"/><path d="m256.128906 451.9375c-2.628906 0-5.207031 1.0625-7.070312 2.933594-1.867188 1.859375-2.929688 4.4375-2.929688 7.066406 0 2.632812 1.0625 5.210938 2.929688 7.070312 1.863281 1.859376 4.441406 2.929688 7.070312 2.929688 2.632813 0 5.210938-1.066406 7.070313-2.929688 1.859375-1.867187 2.929687-4.4375 2.929687-7.070312 0-2.628906-1.070312-5.207031-2.929687-7.066406-1.859375-1.871094-4.4375-2.933594-7.070313-2.933594zm0 0"/><path d="m332.570312 291.890625c-2.628906 0-5.210937 1.070313-7.070312 2.929687-1.859375 1.859376-2.929688 4.441407-2.929688 7.070313s1.070313 5.210937 2.929688 7.070313c1.871094 1.859374 4.441406 2.929687 7.070312 2.929687 2.628907 0 5.210938-1.070313 7.070313-2.929687 1.867187-1.859376 2.929687-4.429688 2.929687-7.070313 0-2.628906-1.0625-5.210937-2.929687-7.070313-1.859375-1.859374-4.429687-2.929687-7.070313-2.929687zm0 0"/><path d="m109.089844 243.578125c2.628906 0 5.210937-1.066406 7.070312-2.929687 1.859375-1.859376 2.929688-4.4375 2.929688-7.070313 0-2.628906-1.070313-5.207031-2.929688-7.066406-1.871094-1.863281-4.441406-2.933594-7.070312-2.933594-2.640625 0-5.210938 1.070313-7.078125 2.933594-1.859375 1.859375-2.921875 4.4375-2.921875 7.066406 0 2.632813 1.0625 5.210937 2.921875 7.070313 1.867187 1.863281 4.4375 2.929687 7.078125 2.929687zm0 0"/></svg>