<?xml version="1.0" encoding="iso-8859-1"?>
<!-- Generator: Adobe Illustrator 19.0.0, SVG Export Plug-In . SVG Version: 6.00 Build 0)  -->
<svg version="1.1" id="Capa_1" xmlns="http://www.w3.org/2000/svg" xmlns:xlink="http://www.w3.org/1999/xlink" x="0px" y="0px"
	 viewBox="0 0 512.002 512.002" style="enable-background:new 0 0 512.002 512.002;" xml:space="preserve">
<g>
	<g>
		<path d="M510.429,160.663c-88.628-113.64-84.848-110.793-89.58-111.257L282.114,30.719c-34.972-4.711-58.727,1.412-70.857,2.509
			c-4.071,0.548-6.926,4.293-6.379,8.364c0.548,4.071,4.298,6.932,8.364,6.379c12.302-1.128,34.365-6.887,66.886-2.509l95.27,12.832
			c-7.13,1.453-112.264,22.877-119.399,24.331L136.603,58.294l41.27-5.559c4.071-0.548,6.926-4.293,6.379-8.364
			c-0.548-4.072-4.301-6.928-8.364-6.379l-84.73,11.412c-0.012,0.001-0.024,0.003-0.036,0.005l-0.112,0.015
			c-0.114,0.016-0.225,0.041-0.338,0.062c-0.073,0.014-0.148,0.024-0.22,0.04c-0.061,0.013-0.122,0.026-0.182,0.04
			c-0.085,0.021-0.169,0.046-0.253,0.069c-0.13,0.036-0.26,0.071-0.388,0.114c-0.053,0.018-0.103,0.04-0.156,0.059
			c-0.023,0.008-0.046,0.017-0.068,0.026c-0.074,0.028-0.151,0.054-0.224,0.083c-0.134,0.055-0.264,0.116-0.394,0.179
			c-0.057,0.027-0.113,0.052-0.169,0.08c-0.063,0.032-0.124,0.063-0.185,0.096c-0.059,0.032-0.115,0.068-0.174,0.103
			c-3.23,1.882-1.653,2.015-86.686,110.287c-1.768,2.268-2.072,5.351-0.778,7.92c2.994,5.94-4.969-5.785,159.18,212.102
			c2.474,3.28,7.138,3.932,10.418,1.458c3.279-2.474,3.931-7.138,1.458-10.418L27.672,180.628l116.502,36.696
			c2.794,7.369,88.129,232.446,89.712,236.622l-41.053-54.411c-2.474-3.28-7.137-3.932-10.418-1.458
			c-3.28,2.474-3.931,7.138-1.458,10.418c42.987,56.963,47.416,62.866,47.722,63.211c5.431,6.121,12.942,9.992,20.126,11.204
			c1.063,0.181,13.526,0.177,14.568-0.026c9.058-1.759,16.709-6.876,20.321-11.633l145.194-192.443
			c2.473-3.28,1.821-7.944-1.458-10.418c-3.282-2.472-7.943-1.82-10.418,1.458l-138.9,184.102
			c4.437-11.703,86.453-228.025,89.714-236.625l116.503-36.696l-46.408,61.508c-2.473,3.28-1.822,7.944,1.458,10.418
			c3.281,2.474,7.944,1.822,10.418-1.458c62.302-82.654,58.945-77.644,61.404-82.503C512.501,166.023,512.2,162.934,510.429,160.663
			z M256,101.5l89.739,102.375H166.262L256,101.5z M19.13,162.341l70.565-90.491l47.841,127.789L19.13,162.341z M103.678,66.766
			c14.728,3.001,120.334,24.523,138.285,28.181l-89.508,102.111L103.678,66.766z M256.822,468.145h-1.642L160.625,218.75h190.752
			L256.822,468.145z M359.545,197.057L270.037,94.947c11.907-2.427,119.976-24.449,138.285-28.181L359.545,197.057z
			 M374.464,199.637l47.841-127.789l70.566,90.492L374.464,199.637z"/>
	</g>
</g>
<g>
</g>
<g>
</g>
<g>
</g>
<g>
</g>
<g>
</g>
<g>
</g>
<g>
</g>
<g>
</g>
<g>
</g>
<g>
</g>
<g>
</g>
<g>
</g>
<g>
</g>
<g>
</g>
<g>
</g>
</svg>
