<svg id="Capa_1" enable-background="new 0 0 505.227 505.227" height="512" viewBox="0 0 505.227 505.227" width="512" xmlns="http://www.w3.org/2000/svg"><g><path d="m486.687 313.987c-1.042-.65-2.143-1.155-3.277-1.519v-87.563c0-4.143-3.358-7.5-7.5-7.5s-7.5 3.357-7.5 7.5v90.417l-4.37 2.139c-35.492 17.38-77.352 11.465-106.639-15.07l-14.064-12.741v-195.878c0-4.143-3.358-7.5-7.5-7.5s-7.5 3.357-7.5 7.5v188.353c-3.631-.249-7.336.438-10.699 2.127l-150.523 75.563-46.278-46.279c-17.816-17.814-46.804-17.814-64.619 0l-29.034 29.034c-7.727 7.728-7.954 20.053-.515 28.059l114.857 123.613c6.487 6.981 15.673 10.985 25.203 10.985h306.578c11.148 0 20.218-9.07 20.218-20.219v-158.695c.001-5.046-2.556-9.655-6.838-12.326zm-168.024.383c1.229 2.687.047 5.88-2.634 7.118l-74.87 34.593c-2.521 1.165-5.566.185-6.935-2.23l-4.827-8.518 84.113-42.224zm-102.689 37.701 5.199 9.174c3.708 6.545 10.666 10.307 17.822 10.307 2.851 0 5.734-.597 8.454-1.854l74.871-34.593c10.162-4.694 14.641-16.796 9.984-26.976l-5.056-11.052c1.294.07 2.561.557 3.554 1.456l16.528 14.976c16.517 14.963 36.911 24.521 58.979 27.64 22.068 3.12 44.313-.414 64.328-10.214l7.889-3.862v59.063h-30.314c-4.142 0-7.5 3.357-7.5 7.5s3.358 7.5 7.5 7.5h30.314v59.09h-272.461l75.185-47.77c11.655-7.406 25.115-11.32 38.925-11.32h96.075c4.142 0 7.5-3.357 7.5-7.5s-3.358-7.5-7.5-7.5h-96.075c-16.664 0-32.906 4.724-46.97 13.66l-1.777 1.129c-.375-.058-.757-.097-1.148-.097h-62.15l-29.84-29.841zm-149.15-27.928c5.797-5.798 13.505-8.99 21.703-8.99s15.906 3.192 21.703 8.99l89.49 89.49c1.406 1.406 3.314 2.196 5.303 2.196h42.949l-69.877 44.397h-6.746l-115.887-124.721zm406.483 166.084h-306.577c-5.375 0-10.556-2.258-14.215-6.196l-114.858-123.614c-1.92-2.065-1.861-5.247.133-7.241l7.057-7.057 117.738 126.713c1.419 1.527 3.41 2.395 5.494 2.395h12.187c.005 0 .01.001.016.001.005 0 .009-.001.014-.001h298.229v9.781c.001 2.878-2.34 5.219-5.218 5.219z"/><path d="m475.91 200.444c4.142 0 7.5-3.357 7.5-7.5v-125.727c0-4.143-3.358-7.5-7.5-7.5s-7.5 3.357-7.5 7.5v125.728c0 4.142 3.358 7.499 7.5 7.499z"/><path d="m157.939 292.477c33.766 0 66.709-11.785 92.761-33.185 3.201-2.63 3.665-7.355 1.035-10.557-2.629-3.199-7.354-3.663-10.556-1.035-23.375 19.202-52.938 29.776-83.24 29.776-72.365 0-131.238-58.873-131.238-131.238s58.873-131.238 131.238-131.238 131.238 58.873 131.238 131.238c0 29.094-9.33 56.656-26.981 79.707-2.519 3.288-1.894 7.996 1.395 10.515 3.289 2.517 7.996 1.895 10.515-1.396 19.673-25.691 30.072-56.407 30.072-88.826-.001-80.635-65.603-146.238-146.239-146.238s-146.238 65.603-146.238 146.238 65.602 146.239 146.238 146.239z"/></g></svg>