<?xml version="1.0" encoding="iso-8859-1"?>
<!-- Generator: Adobe Illustrator 19.0.0, SVG Export Plug-In . SVG Version: 6.00 Build 0)  -->
<svg version="1.1" id="Layer_1" xmlns="http://www.w3.org/2000/svg" xmlns:xlink="http://www.w3.org/1999/xlink" x="0px" y="0px"
	 viewBox="0 0 512.001 512.001" style="enable-background:new 0 0 512.001 512.001;" xml:space="preserve">
<g>
	<g>
		<path d="M504.22,237.34c-5.016-4.786-11.606-7.237-18.541-6.915c-2.775,0.13-5.422,0.721-7.882,1.689v-10.319
			c0-13.851-11.268-25.119-25.119-25.119c-13.851,0-25.119,11.268-25.119,25.119v10.793c-2.82-1.098-5.882-1.707-9.086-1.707
			c-13.851,0-25.119,11.268-25.119,25.119v19.344c-2.82-1.098-5.882-1.707-9.086-1.707c-13.851,0-25.119,11.268-25.119,25.119
			v52.265c-38.387,4.02-68.409,36.57-68.409,76.003v76.96c0,4.428,3.589,8.017,8.017,8.017s8.017-3.588,8.017-8.017v-76.96
			c0-33.3,27.092-60.392,60.392-60.392h34.205c2.909,0,5.448-1.554,6.853-3.873l44.058-44.726c1.703-1.728,3.977-2.69,6.404-2.709
			c0.022,0,0.046,0,0.069,0c2.401,0,4.661,0.926,6.374,2.612c3.527,3.475,3.572,9.321,0.097,12.849l-45.38,46.067
			c-2.859,2.902-3.053,7.634-0.444,10.762c2.992,3.585,8.59,3.816,11.866,0.491l45.38-46.067c4.708-4.78,7.274-11.108,7.224-17.817
			c-0.045-6.013-2.191-11.683-6.076-16.184V256c0-5.046,3.875-9.334,8.636-9.557c5.12-0.255,9.536,3.946,9.536,9.074v91.226
			l-23.305,23.305c-2.919,2.919-3.113,7.74-0.427,10.878c2.997,3.501,8.503,3.72,11.763,0.461l25.653-25.653
			c1.504-1.504,2.348-3.542,2.348-5.669v-94.546C512.001,248.683,509.165,242.058,504.22,237.34z M393.354,349.528v1.069h-18.171
			v-51.841c0-5.01,4.076-9.086,9.086-9.086c5.01,0,9.086,4.076,9.086,9.086V349.528z M409.387,338.729V256
			c0-5.01,4.076-9.086,9.086-9.086c5.01,0,9.086,4.076,9.086,9.086v61.461v2.138c0,0.22,0.016,0.435,0.033,0.65L409.387,338.729z
			 M461.763,299.488c-0.992-0.118-1.991-0.198-3.005-0.198c-0.064,0-0.129,0-0.193,0.001c-5.483,0.041-10.685,1.827-14.973,5.087
			v-82.583c0-5.01,4.076-9.086,9.086-9.086c5.01,0,9.086,4.076,9.086,9.086V299.488z"/>
	</g>
</g>
<g>
	<g>
		<path d="M458.346,395.701c-3.13-3.13-8.207-3.13-11.337-0.001l-25.092,25.093l-50.646,33.764c-2.23,1.487-3.57,3.989-3.57,6.67
			v42.756c0,4.428,3.589,8.017,8.017,8.017c4.427,0,8.017-3.588,8.017-8.017v-38.465l47.737-31.824
			c0.439-0.292,0.849-0.628,1.222-1.002l25.653-25.653C461.477,403.907,461.477,398.832,458.346,395.701z"/>
	</g>
</g>
<g>
	<g>
		<path d="M152.853,351.02v-52.265c0-13.851-11.268-25.119-25.119-25.119c-3.203,0-6.266,0.609-9.086,1.707V256
			c0-13.851-11.268-25.119-25.119-25.119c-3.203,0-6.266,0.609-9.086,1.707v-10.793c0-13.851-11.268-25.119-25.119-25.119
			c-13.851,0-25.119,11.268-25.119,25.119v10.319c-2.46-0.967-5.107-1.557-7.882-1.689c-6.93-0.309-13.525,2.128-18.541,6.915
			c-4.946,4.718-7.782,11.343-7.782,18.177v17.585c0,4.428,3.589,8.017,8.017,8.017c4.427,0,8.017-3.588,8.017-8.017v-17.585
			c0-5.123,4.415-9.335,9.535-9.074c4.762,0.223,8.637,4.512,8.637,9.557v52.057c-8.421,9.794-8.077,24.613,1.148,33.98
			l45.38,46.067c3.283,3.331,8.865,3.087,11.866-0.491c2.617-3.121,2.41-7.864-0.444-10.762l-45.379-46.066
			c-3.517-3.57-3.473-9.334,0.096-12.849c3.521-3.47,9.387-3.419,12.849,0.097l44.058,44.726c1.406,2.317,3.944,3.872,6.853,3.872
			h34.205c33.3,0,60.392,27.092,60.392,60.392v76.96c0,4.428,3.589,8.017,8.017,8.017c4.427,0,8.017-3.588,8.017-8.017v-76.96
			C221.262,387.589,191.24,355.04,152.853,351.02z M68.41,304.378c-4.288-3.26-9.49-5.046-14.973-5.087
			c-1.077-0.01-2.144,0.057-3.198,0.182v-77.678c0-5.01,4.076-9.086,9.086-9.086c5.01,0,9.086,4.076,9.086,9.086V304.378z
			 M102.615,338.728l-18.204-18.48c0.017-0.214,0.033-0.43,0.033-0.649V256c0-5.01,4.076-9.086,9.086-9.086s9.086,4.076,9.086,9.086
			V338.728z M136.819,350.597h-18.171v-51.841c0-5.01,4.076-9.086,9.086-9.086s9.086,4.076,9.086,9.086V350.597z"/>
	</g>
</g>
<g>
	<g>
		<path d="M140.732,454.558l-50.646-33.764l-74.051-74.051v-30.885c0-4.428-3.589-8.017-8.017-8.017
			c-4.427,0-8.017,3.588-8.017,8.017v34.205c0,2.126,0.844,4.164,2.348,5.669l76.96,76.96c0.373,0.373,0.782,0.709,1.222,1.002
			l47.737,31.824v38.465c0,4.428,3.589,8.017,8.017,8.017s8.017-3.588,8.017-8.017v-42.756
			C144.302,458.547,142.962,456.043,140.732,454.558z"/>
	</g>
</g>
<g>
	<g>
		<path d="M332.961,119.716H281.12V50.772c0-4.428-3.589-8.017-8.017-8.017h-34.205c-4.427,0-8.017,3.588-8.017,8.017v68.944
			h-51.841c-4.427,0-8.017,3.588-8.017,8.017v34.205c0,4.428,3.589,8.017,8.017,8.017h51.841v154.455
			c0,4.428,3.589,8.017,8.017,8.017h34.205c4.427,0,8.017-3.588,8.017-8.017V169.954h51.841c4.427,0,8.017-3.588,8.017-8.017
			v-34.205C340.978,123.304,337.389,119.716,332.961,119.716z M324.945,153.921h-51.841c-4.427,0-8.017,3.588-8.017,8.017v154.455
			h-18.171V161.937c0-4.428-3.589-8.017-8.017-8.017h-51.841v-18.171h51.841c4.427,0,8.017-3.588,8.017-8.017V58.789h18.171v68.944
			c0,4.428,3.589,8.017,8.017,8.017h51.841V153.921z"/>
	</g>
</g>
<g>
	<g>
		<path d="M256.001,0c-4.427,0-8.017,3.588-8.017,8.017v17.102c0,4.428,3.589,8.017,8.017,8.017s8.017-3.588,8.017-8.017V8.017
			C264.018,3.588,260.428,0,256.001,0z"/>
	</g>
</g>
<g>
	<g>
		<path d="M203.087,37.149l-8.551-14.811c-2.215-3.835-7.118-5.147-10.951-2.934c-3.834,2.214-5.148,7.117-2.934,10.951l8.55,14.811
			c2.356,4.081,7.897,5.242,11.7,2.445C204.147,45.223,205.099,40.636,203.087,37.149z"/>
	</g>
</g>
<g>
	<g>
		<path d="M156.332,78.034l-14.811-8.551c-3.835-2.214-8.737-0.901-10.951,2.934c-2.214,3.835-0.9,8.738,2.934,10.952l14.811,8.551
			c4.091,2.36,9.463,0.583,11.355-3.733C161.289,84.496,159.819,80.047,156.332,78.034z"/>
	</g>
</g>
<g>
	<g>
		<path d="M136.285,136.818h-17.102c-4.427,0-8.017,3.588-8.017,8.017c0,4.428,3.589,8.017,8.017,8.017h17.102
			c4.427,0,8.017-3.588,8.017-8.017C144.302,140.407,140.712,136.818,136.285,136.818z"/>
	</g>
</g>
<g>
	<g>
		<path d="M159.266,200.685c-2.215-3.835-7.117-5.147-10.951-2.934l-14.811,8.551c-2.982,1.722-4.557,5.27-3.829,8.637
			c0.79,3.649,4.112,6.324,7.845,6.324c1.36,0,2.738-0.346,4.001-1.075l14.811-8.551
			C160.166,209.422,161.48,204.519,159.266,200.685z"/>
	</g>
</g>
<g>
	<g>
		<path d="M200.151,241.571c-3.835-2.213-8.737-0.901-10.951,2.934l-8.551,14.811c-3.022,5.233,0.855,12.026,6.935,12.026
			c2.771,0,5.465-1.438,6.95-4.009l8.551-14.811C205.299,248.688,203.986,243.785,200.151,241.571z"/>
	</g>
</g>
<g>
	<g>
		<path d="M331.354,259.315l-8.551-14.811c-2.215-3.835-7.119-5.146-10.952-2.934c-3.834,2.214-5.148,7.117-2.934,10.951
			l8.551,14.811c2.356,4.081,7.897,5.242,11.7,2.445C332.414,267.388,333.367,262.801,331.354,259.315z"/>
	</g>
</g>
<g>
	<g>
		<path d="M378.497,206.301l-14.811-8.551c-3.834-2.214-8.737-0.901-10.951,2.934c-2.215,3.835-0.901,8.738,2.934,10.952
			l14.811,8.551c4.091,2.36,9.463,0.583,11.355-3.733C383.454,212.763,381.984,208.315,378.497,206.301z"/>
	</g>
</g>
<g>
	<g>
		<path d="M392.819,136.818h-17.102c-4.427,0-8.017,3.588-8.017,8.017c0,4.428,3.589,8.017,8.017,8.017h17.102
			c4.427,0,8.017-3.588,8.017-8.017C400.836,140.407,397.247,136.818,392.819,136.818z"/>
	</g>
</g>
<g>
	<g>
		<path d="M381.43,72.418c-2.215-3.835-7.118-5.147-10.951-2.934l-14.811,8.551c-2.982,1.722-4.557,5.27-3.829,8.637
			c0.791,3.649,4.112,6.324,7.845,6.324c1.36,0,2.739-0.346,4.001-1.075l14.811-8.551C382.33,81.155,383.644,76.252,381.43,72.418z"
			/>
	</g>
</g>
<g>
	<g>
		<path d="M328.419,19.405c-3.835-2.214-8.737-0.901-10.951,2.934l-8.551,14.811c-2.214,3.834-0.9,8.737,2.934,10.951
			c3.788,2.186,8.768,0.848,10.951-2.934l8.551-14.811C333.566,26.521,332.253,21.618,328.419,19.405z"/>
	</g>
</g>
<g>
	<g>
		<path d="M119.306,56.657L67.466,26.728c-3.835-2.213-8.737-0.901-10.951,2.934c-2.215,3.834-0.901,8.737,2.934,10.951
			l51.839,29.929c1.262,0.729,2.641,1.075,4.001,1.075c2.771,0,5.465-1.438,6.95-4.009C124.453,63.773,123.14,58.87,119.306,56.657z
			"/>
	</g>
</g>
<g>
	<g>
		<path d="M84.978,136.818H25.12c-4.427,0-8.017,3.588-8.017,8.017c0,4.428,3.589,8.017,8.017,8.017h59.858
			c4.427,0,8.017-3.588,8.017-8.017C92.995,140.407,89.405,136.818,84.978,136.818z"/>
	</g>
</g>
<g>
	<g>
		<path d="M486.882,136.818h-59.858c-4.427,0-8.017,3.588-8.017,8.017c0,4.428,3.589,8.017,8.017,8.017h59.858
			c4.427,0,8.017-3.588,8.017-8.017C494.899,140.407,491.309,136.818,486.882,136.818z"/>
	</g>
</g>
<g>
	<g>
		<path d="M455.488,29.662c-2.214-3.835-7.117-5.146-10.951-2.934l-51.839,29.929c-3.834,2.214-5.148,7.117-2.934,10.951
			c1.485,2.572,4.179,4.009,6.95,4.009c1.36,0,2.739-0.346,4.001-1.075l51.839-29.929C456.388,38.399,457.701,33.496,455.488,29.662
			z"/>
	</g>
</g>
<g>
</g>
<g>
</g>
<g>
</g>
<g>
</g>
<g>
</g>
<g>
</g>
<g>
</g>
<g>
</g>
<g>
</g>
<g>
</g>
<g>
</g>
<g>
</g>
<g>
</g>
<g>
</g>
<g>
</g>
</svg>
