<svg height="512" viewBox="0 0 64 64" width="512" xmlns="http://www.w3.org/2000/svg"><g id="outline"><path d="m49 6a.987.987 0 0 0 -.817-.978l-16-3.005a1.034 1.034 0 0 0 -.368 0l-16 3.006a.984.984 0 0 0 -.815.977v3h-13v42h18v2.18l-14.165 2.834c-1.646.274-3.835.986-3.835 3.986v1a1 1 0 0 0 1.165.986l17.918-2.986h21.834l17.918 2.986a.919.919 0 0 0 .165.014 1 1 0 0 0 1-1v-1c0-2.991-2.175-3.708-3.819-3.984l-14.181-2.836v-2.18h18v-42h-13zm-17-1.982 11.318 2.122-11.318 2.829-11.318-2.829zm15 3.263v16.026l-14 5.25v-17.776zm-30 0 14 3.5v17.776l-14-5.25zm-1.351 17.656 16 6a1.936 1.936 0 0 0 .351.063 1.936 1.936 0 0 0 .351-.063l16-6a1 1 0 0 0 .649-.937v-9h7v30h-48v-30h7v9a1 1 0 0 0 .649.937zm42.151 33.043.031.006c1.739.29 2.124.83 2.162 1.833l-16.832-2.8a.919.919 0 0 0 -.161-.019h-22a.919.919 0 0 0 -.165.014l-16.835 2.805c.038-1 .424-1.543 2.193-1.839l14.907-2.98h21.8zm-35.8-4.98v-2h20v2zm38-42v38h-56v-38h11v2h-9v34h52v-34h-9v-2z"/><path d="m16.439 33.172a1 1 0 0 0 -.439.828v6a1 1 0 0 0 .628.929l5 2a1.981 1.981 0 0 0 .372.071 1.981 1.981 0 0 0 .372-.071l5-2a1 1 0 0 0 .628-.929v-6a1 1 0 0 0 -.439-.828 1.82 1.82 0 0 0 -.189-.1l-5-2a1.017 1.017 0 0 0 -.744 0l-5 2a1.932 1.932 0 0 0 -.189.1zm9.561 6.151-3 1.2v-3.846l3-1.2zm-4-6.246 2.307.923-2.307.923-2.307-.923zm-4 2.4 3 1.2v3.846l-3-1.2z"/><path d="m39.553 36.9 4 2a1 1 0 0 0 .894 0l4-2a1 1 0 0 0 .553-.9v-4a1 1 0 0 0 -.474-.851c-.026-.016-.079-.044-.079-.044l-4-2a1 1 0 0 0 -.894 0l-4 2s-.053.028-.079.044a1 1 0 0 0 -.474.851v4a1 1 0 0 0 .553.9zm7.447-1.518-2 1v-1.764l2-1zm-3-4.264 1.764.882-1.764.882-1.764-.882zm-3 2.5 2 1v1.764l-2-1z"/><path d="m52 41h-4v2h6v-8h-2z"/><path d="m53 26.677v-5.677h-2v4.323l-4.372 1.748.744 1.858z"/><path d="m13 17h-2v9.659l7.606 3.26.788-1.838-6.394-2.74z"/><path d="m31 34h2v2h-2z"/><path d="m12 40h2v2h-2z"/><path d="m34 38h2v2h-2z"/></g></svg>