<?xml version="1.0"?>
<svg xmlns="http://www.w3.org/2000/svg" id="stroke" viewBox="0 0 340 340" width="512" height="512"><path d="M77.392,333.492c.36,0,.717.008,1.077.008a73.161,73.161,0,0,0,58.053-28.819,3.5,3.5,0,0,0-5.577-4.233A65.8,65.8,0,0,1,12.807,264.261,65.205,65.205,0,0,1,24.616,222.98,33.689,33.689,0,0,0,30.4,197.865,48.916,48.916,0,0,1,60.972,143.54v37.546a3.5,3.5,0,0,0,7,0V62.639h7.035V177.93a3.5,3.5,0,0,0,7,0V62.639h7.034V181.086a3.5,3.5,0,0,0,7,0V143.577A49.149,49.149,0,0,1,127.293,186.1a49.7,49.7,0,0,1-.2,8.459,3.5,3.5,0,0,0,3.095,3.862,3.37,3.37,0,0,0,.387.021,3.5,3.5,0,0,0,3.475-3.116,55.856,55.856,0,0,0-38.01-59.183V61.46a11.236,11.236,0,0,0,6.309-10.829l-.227-3.708h3.829a3.5,3.5,0,0,0,0-7H101.7l-.654-10.707h3.291a3.5,3.5,0,0,0,0-7h-3.719l-.31-5.088A11.334,11.334,0,0,0,89.007,6.5h-21a11.334,11.334,0,0,0-11.3,10.629L56.4,22.216H52.68a3.5,3.5,0,0,0,0,7h3.291l-.654,10.707H51.061a3.5,3.5,0,0,0,0,7H54.89l-.227,3.708A11.236,11.236,0,0,0,60.972,61.46v74.655a55.909,55.909,0,0,0-37.461,62.993,26.649,26.649,0,0,1-4.623,19.849A72.125,72.125,0,0,0,5.817,264.628,72.93,72.93,0,0,0,77.392,333.492ZM68.006,13.5h21a4.324,4.324,0,0,1,4.31,4.055l2.046,33.5a4.321,4.321,0,0,1-4.311,4.582H65.961a4.321,4.321,0,0,1-4.311-4.582l2.045-33.5A4.326,4.326,0,0,1,68.006,13.5Z"/><path d="M307.292,168.608a12.038,12.038,0,0,0-14.865-8.3L129.912,206.363a12.054,12.054,0,0,0-8.3,14.866l26.352,92.986a16.834,16.834,0,0,0,16.152,12.237,16.907,16.907,0,0,0,4.61-.644l153.325-43.452A16.813,16.813,0,0,0,333.644,261.6ZM192.129,233.589l7.024-1.991,10.563,37.276a2.922,2.922,0,0,1-2.016,3.609l-8.42,2.387a2.926,2.926,0,0,1-3.61-2.016l-10.564-37.275Zm85.525,54.074L270.381,262l.842-.238a9.937,9.937,0,0,0,6.843-12.254L267.5,212.229l13.684-3.877,20.542,72.489Zm-16.887-73.525,10.564,37.273a2.928,2.928,0,0,1-2.016,3.611l-8.419,2.386a2.93,2.93,0,0,1-3.612-2.015l-10.563-37.274Zm-20.781,5.889L250.55,257.3a9.92,9.92,0,0,0,12.254,6.841l.842-.239,7.274,25.667-24.073,6.822L226.3,223.905Zm-20.417,5.786L240.113,298.3l-24.073,6.822-7.274-25.667.843-.239a9.923,9.923,0,0,0,6.841-12.253L205.887,229.69Zm-41.2,11.675,10.564,37.274a9.937,9.937,0,0,0,9.533,7.223,9.95,9.95,0,0,0,2.72-.381l.843-.239,7.274,25.667-24.074,6.823L164.69,241.366Zm147.663,33.476a9.746,9.746,0,0,1-5.892,4.658l-11.681,3.31-21.5-75.856a3.5,3.5,0,0,0-4.321-2.413l-61.213,17.348c-.068.019-.126.053-.191.075s-.141.018-.212.038l-30.807,8.73-30.807,8.732A3.5,3.5,0,0,0,157,239.907l21.5,75.856-11.681,3.31a9.817,9.817,0,0,1-12.119-6.766L128.347,219.32a5.044,5.044,0,0,1,3.473-6.222l162.515-46.056a6.066,6.066,0,0,1,3.831.448,4.994,4.994,0,0,1,2.392,3.027L326.909,263.5A9.746,9.746,0,0,1,326.035,270.964Z"/><path d="M214.887,117.591a15,15,0,0,0-4.943,14.63c1.555,7.333,7.921,13.61,16.615,16.383a49.661,49.661,0,0,0,14.5,2.61c3.951,0,7.7-.791,10.617-2.924,2.378-1.738,5.214-5.155,5.214-11.565V56.315a18.045,18.045,0,0,0-8.566-15.4h0a371.916,371.916,0,0,0-58.859-29.621,12.56,12.56,0,0,0-17.172,11.688V95.745c-7.067-2.482-13.213-1.755-17.642,2.182a15.008,15.008,0,0,0-4.943,14.632c1.556,7.333,7.922,13.61,16.614,16.381,7.84,2.5,18.564,4.475,25.114-.313,2.379-1.738,5.215-5.156,5.215-11.566V63.827A118.676,118.676,0,0,1,228.326,79.2a15.361,15.361,0,0,1,6.585,12.621v24.518C226.926,112.818,219.814,113.209,214.887,117.591Zm17.431-44.144A126.751,126.751,0,0,0,194.08,55.766a3.5,3.5,0,0,0-4.433,3.373v57.922c0,2.827-.767,4.761-2.345,5.915-3.213,2.347-10.084,2.093-18.857-.7-6.206-1.979-10.874-6.362-11.893-11.166a7.955,7.955,0,0,1,2.745-7.946c4.214-3.746,11.1-.949,14.84,1.051a3.5,3.5,0,0,0,5.152-3.085V22.981a5.56,5.56,0,0,1,7.6-5.178,365.058,365.058,0,0,1,57.733,29.052,11.089,11.089,0,0,1,5.266,9.46v80.41c0,2.826-.767,4.76-2.344,5.914-3.216,2.347-10.088,2.092-18.857-.705-6.207-1.979-10.875-6.362-11.894-11.165a7.955,7.955,0,0,1,2.745-7.946,7.749,7.749,0,0,1,5.318-1.867c4.421,0,9.293,2.67,11.692,4.18a3.5,3.5,0,0,0,5.364-2.962V91.818A22.36,22.36,0,0,0,232.318,73.447Z"/><path d="M110.265,218.543a31.759,31.759,0,1,0-49.293,26.462v20.579h-7.3a3.5,3.5,0,0,0-3.5,3.5v5.981a11.773,11.773,0,0,0,11.76,11.76H95.079a11.773,11.773,0,0,0,11.76-11.76v-5.981a3.5,3.5,0,0,0-3.5-3.5h-7.3V245.005A31.751,31.751,0,0,0,110.265,218.543Zm-7,0A24.678,24.678,0,0,1,96.041,236V201.082A24.678,24.678,0,0,1,103.265,218.543Zm-35.293-22.4a24.549,24.549,0,0,1,7.035-2.108V243.05a24.549,24.549,0,0,1-7.035-2.108Zm14.035-2.108a24.582,24.582,0,0,1,7.034,2.107v44.8a24.582,24.582,0,0,1-7.034,2.107ZM53.748,218.543a24.678,24.678,0,0,1,7.224-17.461V236A24.678,24.678,0,0,1,53.748,218.543ZM67.972,248.5a31.491,31.491,0,0,0,7.035,1.607v15.479H67.972Zm31.867,26.567a4.765,4.765,0,0,1-4.76,4.76H61.934a4.765,4.765,0,0,1-4.76-4.76v-2.481H99.839Zm-10.8-9.481H82.007V250.105a31.5,31.5,0,0,0,7.034-1.607Z"/><path d="M71.7,45.04a3.555,3.555,0,1,0-3.554-3.555A3.555,3.555,0,0,0,71.7,45.04Z"/><circle cx="72.223" cy="25.935" r="3.555"/><path d="M85.309,37.93a3.555,3.555,0,1,0,3.555,3.555A3.555,3.555,0,0,0,85.309,37.93Z"/><path d="M84.79,29.49a3.555,3.555,0,1,0-3.555-3.555A3.555,3.555,0,0,0,84.79,29.49Z"/></svg>
