<?xml version="1.0"?>
<svg xmlns="http://www.w3.org/2000/svg" id="Line_Expand" data-name="Line Expand" viewBox="0 0 64 64" width="512" height="512"><path d="M53.919,52.7343A6.3666,6.3666,0,0,0,56.5,47.6211V47.5a6.5,6.5,0,0,0-13,0v.1211a6.3666,6.3666,0,0,0,2.5865,5.1173,10.8571,10.8571,0,0,0-5.082,3.9628,11.0449,11.0449,0,0,0-5.0855-3.9669A6.3666,6.3666,0,0,0,38.5,47.6211V47.5a6.5,6.5,0,0,0-13,0v.1211a6.3666,6.3666,0,0,0,2.581,5.1132,11.0449,11.0449,0,0,0-5.0855,3.9669,10.8571,10.8571,0,0,0-5.082-3.9628A6.3666,6.3666,0,0,0,20.5,47.6211V47.5a6.5,6.5,0,0,0-13,0v.1211a6.3666,6.3666,0,0,0,2.581,5.1132A11.0083,11.0083,0,0,0,3,63a1,1,0,0,0,1,1H60a1,1,0,0,0,1-1A11.0083,11.0083,0,0,0,53.919,52.7343ZM49.8789,52A4.3844,4.3844,0,0,1,45.5,47.6211V47.5a4.5,4.5,0,0,1,9,0v.1211A4.3844,4.3844,0,0,1,50.1211,52Zm-18,0A4.3844,4.3844,0,0,1,27.5,47.6211V47.5a4.5,4.5,0,0,1,9,0v.1211A4.3844,4.3844,0,0,1,32.1211,52Zm-18,0A4.3844,4.3844,0,0,1,9.5,47.6211V47.5a4.5,4.5,0,0,1,9,0v.1211A4.3844,4.3844,0,0,1,14.1211,52ZM14,54a8.9138,8.9138,0,0,1,7.8746,4.7041A10.9168,10.9168,0,0,0,21.0507,62H5.0557A9.0121,9.0121,0,0,1,14,54Zm9.0557,8a9,9,0,0,1,17.8886,0Zm19.8936,0a10.9161,10.9161,0,0,0-.8239-3.2959A8.9138,8.9138,0,0,1,50,54a9.0121,9.0121,0,0,1,8.9443,8Z"/><path d="M63,0H1A1,1,0,0,0,0,1V36a1,1,0,0,0,1,1H63a1,1,0,0,0,1-1V1A1,1,0,0,0,63,0ZM7,21H2V16H7Zm0-7H2V9H7ZM2,23H7v5H2ZM9,2H55V35H9ZM57,16h5v5H57Zm0-2V9h5v5Zm0,9h5v5H57ZM62,7H57V2h5ZM7,2V7H2V2ZM2,30H7v5H2Zm55,5V30h5v5Z"/><path d="M26.4365,10.6484a1.0005,1.0005,0,0,0-1.873,0l-4.5,12a1,1,0,0,0,1.873.7032L22.8182,21h5.3636l.8817,2.3516a1,1,0,0,0,1.873-.7032ZM23.5681,19,25.5,13.8477,27.4319,19Z"/><path d="M37,10H34a1,1,0,0,0-1,1V23a1,1,0,0,0,1,1h3a7,7,0,0,0,0-14Zm0,12H35V12h2a5,5,0,0,1,0,10Z"/></svg>
