<svg id="REV" xmlns="http://www.w3.org/2000/svg" viewBox="0 0 64 64"><title>Icon Sport</title><path d="M59.21,56.17,45.55,42.51c4.31-6.43,4.56-15.16.48-22.65l5.21-2.48a3.92,3.92,0,0,0,2.12-2.64,3.61,3.61,0,0,0-.68-3.1c-.09-.1-.18-.21-.28-.31a3.77,3.77,0,0,0-2.91-1.1,3.35,3.35,0,0,0-1.1-2.92,3.25,3.25,0,0,0-2.91-1.1A3.83,3.83,0,0,0,44.37,3.3c-.1-.1-.21-.19-.34-.3A3.58,3.58,0,0,0,41,2.34a3.93,3.93,0,0,0-2.63,2.12L35.85,9.67C27.14,4.93,16.77,6,10.27,12.53,2,20.78,2.69,34.87,11.76,43.94a24.33,24.33,0,0,0,16,7.25q.56,0,1.11,0a20.37,20.37,0,0,0,11.42-3.4L53.91,61.47a1,1,0,0,0,.7.29,1,1,0,0,0,.71-.29l3.89-3.89A1,1,0,0,0,59.21,56.17ZM51,12.75a.92.92,0,0,1,.14.15,1.62,1.62,0,0,1,.29,1.39,2,2,0,0,1-1,1.28l-14.8,7,0,0,5-3.8.12-.08,7.67-5.87.1-.08A1.83,1.83,0,0,1,51,12.75ZM20.09,44.09,23.18,41l2.12,2.12-2.21,2.21A19.54,19.54,0,0,1,20.09,44.09ZM43.65,27.6a17.25,17.25,0,0,1,.28,3L42.27,29ZM43,32.51l-2.12,2.12-2.12-2.12,2.12-2.12ZM9.8,30.34a17.94,17.94,0,0,1-.29-3L11.16,29Zm.65-4.9,2.13-2.12,2.12,2.12-2.12,2.12Zm18.39,0-2.13,2.12L24.6,25.44l2.12-2.12ZM23.18,24l-2.12-2.12,2.12-2.13,2.12,2.13Zm-1.41,1.41-2.12,2.12-2.12-2.12,2.12-2.12Zm1.41,1.42L25.3,29l-2.12,2.12L21.06,29Zm3.53,3.53,2.13,2.12-2.12,2.12-2.13-2.12Zm3.54,3.54,2.12,2.12-2.12,2.12-2.12-2.12Zm1.42-1.42,2.12-2.12,2.12,2.12-2.12,2.12ZM30.25,31.1,28.13,29l2.12-2.12L32.37,29ZM31.2,25l-.5-.5a1.87,1.87,0,0,1,.24-2.33l.68-.68,2.61,2.61-.68.68A1.9,1.9,0,0,1,31.2,25Zm-.84-5.08-.84.84a3.81,3.81,0,0,0-.94,1.61l-.45-.44,2.12-2.13Zm-3.64.59L24.6,18.37l2.12-2.12,2.12,2.12ZM23.18,17l-2.12-2.13,2.12-2.12,2.12,2.12Zm-1.41,1.41-2.12,2.12-2.12-2.12,2.12-2.12Zm-3.54,3.54L16.11,24,14,21.91l2.12-2.12Zm-2.12,4.95L18.23,29,16.11,31.1,14,29Zm3.54,3.53,2.11,2.12-2.12,2.12-2.11-2.12Zm3.53,3.53,2.12,2.13-2.12,2.12L21.06,36Zm3.54,3.54,2.12,2.12-2.12,2.13L24.6,39.58ZM30.25,41l2.12,2.12-2.12,2.12-2.12-2.12Zm1.42-1.42,2.12-2.12,2.12,2.12-2.12,2.13Zm3.53-3.53,2.12-2.12,2.13,2.12-2.13,2.12Zm2.12-4.95L35.2,29l2.12-2.13L39.45,29Zm-3.53-3.54-.44-.43A4,4,0,0,0,35,26.18l.84-.84.1.1ZM30.25,17l-2.12-2.13,2.22-2.21a18.08,18.08,0,0,1,3,1.24Zm-3.53-3.54-1.65-1.65a17.23,17.23,0,0,1,3,.28Zm-7.07,0-.59-.59a17,17,0,0,1,1.71-.54Zm-2.5.33,1.08,1.08L16.11,17,14.66,15.5A14.88,14.88,0,0,1,17.15,13.75Zm-3.91,3.17,1.46,1.45-2.12,2.12-1.09-1.08A15.3,15.3,0,0,1,13.24,16.92Zm-2.66,4.41.58.58L10,23A16,16,0,0,1,10.58,21.33Zm2,9.06,2.13,2.12L11.61,35.6a18.59,18.59,0,0,1-1.24-3Zm3.54,3.54L18.23,36l-3.72,3.72a19.31,19.31,0,0,1-1.85-2.39Zm3.53,3.53,2.13,2.12L18.32,43a21.39,21.39,0,0,1-2.4-1.86Zm7.08,7.07,1.65,1.65a17.23,17.23,0,0,1-3-.28Zm7.07,0,.59.59a14.9,14.9,0,0,1-1.72.54Zm2.51-.32-1.1-1.09L37.32,41l1.46,1.46A14.63,14.63,0,0,1,36.3,44.21ZM40.2,41l-1.46-1.46,2.12-2.12L42,38.56A14.63,14.63,0,0,1,40.2,41Zm2.66-4.4-.59-.59,1.14-1.13A15,15,0,0,1,42.86,36.64Zm-2-9.08-2.12-2.12,3.1-3.1a19.54,19.54,0,0,1,1.24,3ZM45.67,8.19A1.84,1.84,0,0,1,47,11.28L39.52,17l-.11.08L36,19.73l8.45-11a1.8,1.8,0,0,1,1.25-.49ZM40.13,5.32a2,2,0,0,1,1.29-1,1.61,1.61,0,0,1,1.36.28l.18.15a1.84,1.84,0,0,1,0,2.6.39.39,0,0,0-.08.1L33.13,20.15l0,0ZM27.82,49.19a22.36,22.36,0,0,1-14.65-6.66C4.89,34.24,4.22,21.42,11.69,14,17.58,8.06,27,7.1,35,11.48l-.38.79a20.74,20.74,0,0,0-4.27-1.75,19.3,19.3,0,0,0-6.72-.71,9,9,0,0,0-1,.09,17,17,0,0,0-5.78,1.72,16.66,16.66,0,0,0-4.37,3.15,16.11,16.11,0,0,0-3.14,4.37,17.05,17.05,0,0,0-1.72,5.75c-.05.33-.08.66-.1,1a19.33,19.33,0,0,0,.72,6.74,20.53,20.53,0,0,0,2.26,5.15,20.89,20.89,0,0,0,3.26,4.17A22.73,22.73,0,0,0,23,47.4a20.68,20.68,0,0,0,5.46.79c.43,0,.86,0,1.28,0l1-.1a16.94,16.94,0,0,0,15-15c.05-.34.07-.68.09-1a23.25,23.25,0,0,0-.7-6.75,19.83,19.83,0,0,0-1.75-4.25l.79-.37C48.6,28.66,47.64,38.13,41.75,44A18,18,0,0,1,27.82,49.19ZM54.61,59.35,41.87,46.6c.45-.37.88-.76,1.3-1.17s.81-.85,1.18-1.3L57.09,56.87Z"/></svg>