<svg height="512pt" viewBox="0 -40 512 512" width="512pt" xmlns="http://www.w3.org/2000/svg"><path d="m87.628906 186.949219c21.191406 0 40.4375-10.488281 51.933594-27.535157 5.589844 5.332032 13.039062 8.730469 21.257812 9.117188 15.402344 32.707031 48 53.550781 84.503907 53.550781h22.886719c36.5 0 69.113281-20.855469 84.511718-53.574219 8.089844-.496093 15.394532-3.941406 20.855469-9.269531 11.46875 17.164063 30.738281 27.710938 52.066406 27.710938 6.78125 0 12.296875-5.515625 12.296875-12.296875v-84.429688c0-28.703125-23.347656-52.050781-52.050781-52.050781h-18.019531c-3.054688-7.175781-10.175782-12.21875-18.453125-12.21875h-3.621094c-3.632813 0-7.152344 1.011719-10.203125 2.820313-17.019531-17.722657-40.933594-28.773438-67.382812-28.773438h-22.886719c-26.5 0-50.453125 11.089844-67.476563 28.867188-3.082031-1.867188-6.660156-2.914063-10.375-2.914063h-3.617187c-8.277344 0-15.398438 5.042969-18.453125 12.21875h-18.019532c-28.699218 0-52.050781 23.351563-52.050781 52.050781v84.429688c-.003906 6.78125 5.515625 12.296875 12.296875 12.296875zm263.074219-33.542969c-.5 0-1.066406-.050781-1.785156-.152344-3.457031-.507812-6.804688 1.429688-8.109375 4.664063-12.019532 29.769531-40.515625 49.003906-72.601563 49.003906h-22.886719c-32.117187 0-60.625-19.261719-72.625-49.074219-1.171874-2.910156-3.980468-4.75-7.027343-4.75-.445313 0-.898438.039063-1.347657.117188-.703124.128906-1.335937.191406-1.929687.191406-9.898437 0-17.945313-8.050781-17.945313-17.945312v-8.472657c0-5.949219 4.839844-10.789062 10.789063-10.789062h4.226563c4.1875 0 7.582031-3.390625 7.582031-7.582031v-.867188c14.789062-18.765625 37.605469-29.898438 61.523437-29.898438h56.394532c23.921874 0 46.734374 11.132813 61.527343 29.898438v.867188c0 4.1875 3.394531 7.582031 7.582031 7.582031h1.882813c6.820313 0 12.367187 5.546875 12.367187 12.371093v7.214844c.003907 9.714844-7.902343 17.621094-17.617187 17.621094zm72.078125-63.183594v81.480469c-17.617188-1.035156-33.023438-11.585937-40.359375-27.648437.6875-2.644532 1.0625-5.414063 1.0625-8.269532v-7.21875c0-6.09375-2.011719-11.722656-5.378906-16.289062 0 0-.085938-14.117188-.261719-15.855469-.414062-4.164063-4.136719-7.210937-8.296875-6.785156-4.164063.414062-7.203125 4.128906-6.789063 8.296875.125 1.234375.1875 2.496094.1875 3.742187v.289063c-.429687-.113282-.855468-.242188-1.292968-.332032v-8.195312c0-4.871094-.378906-9.65625-1.097656-14.328125 5.410156-3.648437 8.914062-9.828125 8.914062-16.636719v-9.144531h16.421875c20.339844 0 36.890625 16.550781 36.890625 36.894531zm-76.984375-49.109375h3.621094c2.695312 0 4.886719 2.191407 4.886719 4.882813v11.128906c-2.386719-5.636719-5.3125-10.992188-8.707032-16 .066406-.003906.132813-.011719.199219-.011719zm-100.472656-25.953125h22.886719c40.488281 0 73.894531 30.898438 77.878906 70.355469-16.835938-14.523437-38.566406-22.824219-61.125-22.824219h-56.394532c-22.5625 0-44.292968 8.300782-61.128906 22.824219 3.984375-39.457031 37.390625-70.355469 77.882813-70.355469zm-81.472657 25.953125h3.621094c.152344 0 .300782.015625.449219.027344-3.519531 5.191406-6.523437 10.757813-8.953125 16.617187v-11.761718c0-2.691406 2.191406-4.882813 4.882812-4.882813zm-73.359374 49.109375c0-20.34375 16.546874-36.894531 36.890624-36.894531h16.425782v9.144531c0 6.957032 3.59375 13.199219 9.144531 16.804688-.703125 4.621094-1.070313 9.347656-1.070313 14.160156v7.816406c-.523437.066406-1.039062.15625-1.550781.253906.003907-1.191406.0625-2.382812.179688-3.554687.417969-4.164063-2.621094-7.878906-6.785157-8.296875-4.164062-.417969-7.882812 2.621094-8.300781 6.785156-.171875 1.726563-.261719 14.117188-.261719 14.117188-3.671874 4.476562-5.878906 10.199218-5.878906 16.429687v8.472657c0 3.179687.457032 6.253906 1.300782 9.167968-7.449219 15.722656-22.734376 26.046875-40.09375 27.074219zm0 0"/><path d="m231.527344 120.242188c0 6.230468-5.046875 11.277343-11.277344 11.277343-6.226562 0-11.277344-5.046875-11.277344-11.277343 0-6.226563 5.050782-11.277344 11.277344-11.277344 6.230469 0 11.277344 5.050781 11.277344 11.277344zm0 0"/><path d="m304.558594 120.242188c0 6.230468-5.050782 11.277343-11.277344 11.277343-6.230469 0-11.277344-5.046875-11.277344-11.277343 0-6.226563 5.046875-11.277344 11.277344-11.277344 6.226562 0 11.277344 5.050781 11.277344 11.277344zm0 0"/><path d="m290.800781 139.957031h-68.066406c-3.214844 0-6.289063 1.371094-8.4375 3.769531-2.152344 2.394532-3.183594 5.605469-2.832031 8.804688 2.527344 23.136719 22.003906 40.578125 45.300781 40.578125 23.300781 0 42.777344-17.441406 45.304687-40.578125.347657-3.199219-.683593-6.410156-2.832031-8.808594-2.148437-2.394531-5.226562-3.765625-8.4375-3.765625zm-34.035156 37.992188c-14.089844 0-26.085937-9.554688-29.464844-22.832031h58.933594c-3.378906 13.277343-15.375 22.832031-29.46875 22.832031zm0 0"/><path d="m490.164062 312.335938v-8.195313c0-51.523437-41.914062-93.441406-93.4375-93.441406h-22.886718c-51.523438 0-93.441406 41.917969-93.441406 93.441406v7.8125c-12.730469 1.652344-22.597657 12.5625-22.597657 25.738281v8.46875c0 17.730469 14.007813 32.246094 31.539063 33.070313 15.398437 32.707031 47.996094 53.550781 84.5 53.550781h22.886718c36.5 0 69.113282-20.855469 84.511719-53.574219 17.140625-1.046875 30.761719-15.320312 30.761719-32.71875v-7.21875c0-13.226562-9.378906-24.304687-21.835938-26.933593zm-116.324218-86.476563h22.886718c40.488282 0 73.894532 30.902344 77.878907 70.359375-16.835938-14.527344-38.566407-22.828125-61.125-22.828125h-56.394531c-22.558594 0-44.289063 8.300781-61.125 22.828125 3.980468-39.457031 37.386718-70.359375 77.878906-70.359375zm123 120.628906c0 9.714844-7.902344 17.617188-17.621094 17.617188-.5 0-1.066406-.046875-1.785156-.148438-3.457032-.507812-6.800782 1.425781-8.109375 4.664063-12.019531 29.769531-40.515625 49-72.597657 49h-22.886718c-32.121094 0-60.628906-19.261719-72.628906-49.070313-1.171876-2.910156-3.980469-4.753906-7.027344-4.753906-.445313 0-.898438.039063-1.347656.121094-.703126.128906-1.332032.1875-1.929688.1875-9.894531 0-17.945312-8.046875-17.945312-17.945313v-8.46875c0-5.949218 4.839843-10.789062 10.789062-10.789062h4.226562c4.1875 0 7.582032-3.394532 7.582032-7.582032v-.871093c14.792968-18.761719 37.605468-29.894531 61.527344-29.894531h56.390624c23.921876 0 46.734376 11.132812 61.527344 29.894531v.871093c0 4.1875 3.394532 7.582032 7.582032 7.582032h1.882812c6.820312 0 12.371094 5.546875 12.371094 12.367187zm0 0"/><path d="m360.046875 330.945312c0 6.230469-5.050781 11.277344-11.277344 11.277344-6.230469 0-11.28125-5.046875-11.28125-11.277344 0-6.226562 5.050781-11.277343 11.28125-11.277343 6.226563 0 11.277344 5.050781 11.277344 11.277343zm0 0"/><path d="m433.074219 330.945312c0 6.230469-5.046875 11.277344-11.277344 11.277344s-11.277344-5.046875-11.277344-11.277344c0-6.226562 5.046875-11.277343 11.277344-11.277343s11.277344 5.050781 11.277344 11.277343zm0 0"/><path d="m419.316406 350.65625h-68.066406c-3.214844 0-6.289062 1.375-8.4375 3.769531-2.148438 2.398438-3.183594 5.609375-2.832031 8.808594 2.527343 23.132813 22 40.578125 45.300781 40.578125s42.777344-17.445312 45.304688-40.574219c.351562-3.203125-.679688-6.414062-2.828126-8.808593-2.152343-2.398438-5.226562-3.773438-8.441406-3.773438zm-34.035156 37.996094c-14.09375 0-26.089844-9.558594-29.464844-22.832032h58.933594c-3.378906 13.273438-15.375 22.832032-29.46875 22.832032zm0 0"/><path d="m232.367188 312.332031v-8.191406c0-51.523437-41.917969-93.441406-93.441407-93.441406h-22.886719c-51.523437 0-93.441406 41.917969-93.441406 93.441406v7.816406c-12.730468 1.648438-22.597656 12.5625-22.597656 25.734375v8.46875c0 17.730469 14.007812 32.25 31.539062 33.070313 15.398438 32.710937 47.996094 53.554687 84.5 53.554687h22.886719c36.503907 0 69.113281-20.859375 84.511719-53.578125 17.136719-1.046875 30.761719-15.324219 30.761719-32.71875v-7.21875c0-13.226562-9.378907-24.304687-21.832031-26.9375zm6.671874 34.15625c0 9.714844-7.90625 17.617188-17.621093 17.617188-.5 0-1.066407-.046875-1.785157-.148438-3.449218-.507812-6.804687 1.425781-8.109374 4.664063-12.019532 29.769531-40.515626 49-72.601563 49h-22.886719c-32.117187 0-60.625-19.261719-72.625-49.070313-1.171875-2.910156-3.980468-4.753906-7.027344-4.753906-.445312 0-.894531.039063-1.347656.121094-.703125.128906-1.335937.1875-1.929687.1875-9.894531 0-17.945313-8.046875-17.945313-17.945313v-8.46875c0-5.949218 4.839844-10.789062 10.789063-10.789062h4.226562c4.1875 0 7.582031-3.394532 7.582031-7.582032v-.871093c14.792969-18.761719 37.605469-29.894531 61.527344-29.894531h56.394532c5.152343 0 10.300781.5 15.304687 1.492187 4.105469.816406 8.09375-1.855469 8.910156-5.960937.8125-4.105469-1.855469-8.097657-5.964843-8.910157-5.96875-1.183593-12.113282-1.785156-18.25-1.785156h-56.394532c-22.558594 0-44.289062 8.300781-61.128906 22.828125 3.984375-39.457031 37.390625-70.359375 77.882812-70.359375h22.886719c40.476563 0 73.875 30.882813 77.875 70.320313-3.492187-3.023438-7.203125-5.800782-11.136719-8.300782-3.535156-2.242187-8.21875-1.195312-10.464843 2.339844-2.242188 3.535156-1.195313 8.21875 2.339843 10.460938 7.550782 4.792968 14.144532 10.78125 19.664063 17.796874v.84375c0 4.1875 3.394531 7.578126 7.582031 7.578126h1.882813c6.820312 0 12.371093 5.550781 12.371093 12.371093zm0 0"/><path d="m102.246094 330.945312c0 6.230469-5.050782 11.277344-11.277344 11.277344-6.230469 0-11.28125-5.046875-11.28125-11.277344 0-6.226562 5.050781-11.277343 11.28125-11.277343 6.226562 0 11.277344 5.050781 11.277344 11.277343zm0 0"/><path d="m175.273438 330.945312c0 6.230469-5.046876 11.277344-11.277344 11.277344-6.226563 0-11.277344-5.046875-11.277344-11.277344 0-6.226562 5.050781-11.277343 11.277344-11.277343 6.230468 0 11.277344 5.050781 11.277344 11.277343zm0 0"/><path d="m161.515625 350.65625h-68.066406c-3.214844 0-6.289063 1.375-8.4375 3.769531-2.152344 2.398438-3.183594 5.609375-2.832031 8.808594 2.527343 23.132813 22.003906 40.578125 45.300781 40.578125 23.300781 0 42.777343-17.445312 45.304687-40.578125.347656-3.199219-.683594-6.410156-2.832031-8.808594-2.148437-2.394531-5.222656-3.769531-8.4375-3.769531zm-34.035156 37.996094c-14.089844 0-26.085938-9.558594-29.464844-22.832032h58.933594c-3.378907 13.277344-15.375 22.832032-29.46875 22.832032zm0 0"/></svg>