<svg id="Capa_1" enable-background="new 0 0 512 512" height="512" viewBox="0 0 512 512" width="512" xmlns="http://www.w3.org/2000/svg"><g><path d="m227.422 105c0-28.047-10.922-54.415-30.754-74.246-19.832-19.832-46.2-30.754-74.246-30.754-28.047 0-54.415 10.922-74.247 30.754-7.773 7.772-14.24 16.643-19.223 26.365l13.349 6.841c3.132-6.111 6.957-11.827 11.401-17.073l58.113 58.113-24.009 24.009c-16.245-14.732-35.079-25.435-55.121-31.312.586-7.027 1.996-14.063 4.278-20.976l-14.244-4.701c-12.515 37.923-2.761 79.01 25.456 107.227 20.47 20.47 47.358 30.705 74.247 30.705 26.888 0 53.776-10.235 74.246-30.705 19.832-19.832 30.754-46.2 30.754-74.247zm-70.374-45.232c-11.885-13.247-20.782-28.342-26.166-44.368 18.368 1.702 35.559 8.941 49.644 20.891zm-.011 21.224c16.232 14.72 35.049 25.417 55.071 31.297-1.498 18.807-8.774 36.433-20.976 50.815l-58.103-58.103zm54.985 15.548c-16.025-5.384-31.12-14.281-44.367-26.166l23.477-23.477c11.948 14.084 19.188 31.275 20.89 49.643zm-147.704-60.249c14.382-12.202 32.008-19.478 50.815-20.977 5.879 20.023 16.577 38.839 31.297 55.071l-24.009 24.009zm116.207 137.42c-14.383 12.202-32.009 19.478-50.815 20.976-5.879-20.022-16.576-38.839-31.297-55.071l24.009-24.009zm-92.729-23.478c11.885 13.247 20.782 28.342 26.166 44.367-18.368-1.702-35.559-8.941-49.643-20.89zm-55.043-36.796c16.051 5.382 31.171 14.287 44.436 26.189l-23.485 23.485c-12.1-14.262-19.273-31.595-20.951-49.674z"/><path d="m229.279 37.5h190.365v15h-190.365z"/><path d="m434.644 37.5v15h44.999v250.7h15v-265.7z"/><path d="m67.199 209.645h-15v168.554h58.723v-15h-43.723z"/><path d="m479.643 363.199h-43.723v15h58.723v-59.999h-15z"/><path d="m155.921 223.49h15v95.91h-15z"/><path d="m390.921 319.399v-175.003h-152.996v15h137.996v160.003z"/><path d="m398.421 334.399h-117.5v15h117.5c4.135 0 7.5 3.364 7.5 7.5v30c0 4.135-3.364 7.5-7.5 7.5h-250c-4.136 0-7.5-3.364-7.5-7.5v-30c0-4.135 3.364-7.5 7.5-7.5h117.5v-15h-117.5c-12.406 0-22.5 10.093-22.5 22.5v30c0 11.265 8.323 20.622 19.142 22.248l40.858 40.858v61.995h15v-46.994l24.394 24.394-9.797 9.797 10.606 10.606 9.797-9.797 9.797 9.797 10.606-10.606-9.797-9.797 26.893-26.893 26.893 26.893-9.797 9.797 10.606 10.606 9.797-9.797 9.797 9.797 10.606-10.606-9.797-9.797 24.394-24.394v46.994h15v-61.994l40.858-40.858c10.819-1.626 19.141-10.983 19.141-22.248v-30c.002-12.407-10.091-22.501-22.497-22.501zm-18.107 75-19.393 19.393-19.393-19.393zm-74.999 0-31.894 31.894-31.894-31.894zm-100.001 0-19.393 19.393-19.393-19.393zm30.608 69.394-35-35-4.394-4.394 26.893-26.893 39.394 39.394zm74.999 0-26.893-26.893 39.394-39.394 26.893 26.893-4.394 4.394z"/><path d="m449.643 97.499h15v45h-15z"/><path d="m449.643 67.499h15v15h-15z"/><path d="m82.198 333.2h15v15h-15z"/><path d="m82.198 303.2h15v15h-15z"/><path d="m315.921 363.199h45v15h-45z"/><path d="m375.921 363.199h15v15h-15z"/><path d="m250.921 239.397h15v15h-15z"/><path d="m280.921 239.397h15v15h-15z"/></g></svg>