<svg height="512" viewBox="0 0 512 512" width="512" xmlns="http://www.w3.org/2000/svg"><g><path d="m448 16a48.051 48.051 0 0 0 -48 48 7.99 7.99 0 0 0 .24 1.94l2.94 11.75 4.82 19.29v151.02a8 8 0 0 0 8 8h8v16a8 8 0 0 0 8 8h8v52a12.01 12.01 0 0 1 -12 12h-24a12.01 12.01 0 0 1 -12-12v-168a28 28 0 0 0 -56 0v332a8 8 0 0 0 16 0v-332a12 12 0 0 1 24 0v168a28.031 28.031 0 0 0 28 28h24a28.031 28.031 0 0 0 28-28v-52h8a8 8 0 0 0 8-8v-16h8a8 8 0 0 0 8-8v-151.02l4.82-19.3 2.94-11.74a7.99 7.99 0 0 0 .24-1.94 48.051 48.051 0 0 0 -48-48zm8 248h-16v-8h16zm16-24h-48v-136h48zm1.75-152h-51.5l-4-16h59.5zm-56.74-32a32.008 32.008 0 0 1 61.98 0z"/><path d="m448 200a8 8 0 0 0 8-8v-48a8 8 0 0 0 -16 0v48a8 8 0 0 0 8 8z"/><path d="m292 8h-248a28.032 28.032 0 0 0 -28 28v440a28.032 28.032 0 0 0 28 28h248a28.032 28.032 0 0 0 28-28v-440a28.032 28.032 0 0 0 -28-28zm12 468a12.013 12.013 0 0 1 -12 12h-248a12.013 12.013 0 0 1 -12-12v-440a12.013 12.013 0 0 1 12-12h248a12.013 12.013 0 0 1 12 12z"/><path d="m168 232a120 120 0 1 0 120 120 120.136 120.136 0 0 0 -120-120zm0 224a104 104 0 1 1 104-104 104.118 104.118 0 0 1 -104 104z"/><path d="m168 280a72 72 0 1 0 72 72 72.081 72.081 0 0 0 -72-72zm0 128a56 56 0 1 1 56-56 56.063 56.063 0 0 1 -56 56z"/><path d="m168 200a72 72 0 1 0 -72-72 72.081 72.081 0 0 0 72 72zm0-128a56 56 0 1 1 -56 56 56.063 56.063 0 0 1 56-56z"/><path d="m168 168a40 40 0 1 0 -40-40 40.045 40.045 0 0 0 40 40zm0-64a24 24 0 1 1 -24 24 24.028 24.028 0 0 1 24-24z"/><circle cx="48" cy="40" r="8"/><circle cx="288" cy="40" r="8"/><circle cx="48" cy="472" r="8"/><circle cx="288" cy="472" r="8"/></g></svg>